<mxfile host="Electron" agent="Mozilla/5.0 (Windows NT 10.0; Win64; x64) AppleWebKit/537.36 (KHTML, like Gecko) draw.io/27.0.2 Chrome/134.0.6998.205 Electron/35.3.0 Safari/537.36" version="27.0.2">
  <diagram name="Page-1" id="-bV8oAyhePCD1Yp3gxoo">
    <mxGraphModel dx="2323" dy="733" grid="0" gridSize="10" guides="1" tooltips="1" connect="1" arrows="0" fold="1" page="1" pageScale="1" pageWidth="1100" pageHeight="850" background="none" math="0" shadow="0">
      <root>
        <object label="" id="0">
          <mxCell />
        </object>
        <mxCell id="1" parent="0" />
        <mxCell id="nZUH5uKoHN7z93Af-GjR-231" style="edgeStyle=orthogonalEdgeStyle;rounded=0;orthogonalLoop=1;jettySize=auto;html=1;exitX=0.5;exitY=0;exitDx=0;exitDy=0;entryX=0.5;entryY=1;entryDx=0;entryDy=0;endArrow=none;startFill=0;" parent="1" source="zyWTynDUfDF3k8TMz7bk-304" target="nZUH5uKoHN7z93Af-GjR-230" edge="1">
          <mxGeometry relative="1" as="geometry" />
        </mxCell>
        <mxCell id="zyWTynDUfDF3k8TMz7bk-304" value="User Login" style="whiteSpace=wrap;html=1;align=center;labelBackgroundColor=none;rounded=0;backgroundOutline=0;" parent="1" vertex="1">
          <mxGeometry x="165" y="104" width="100" height="40" as="geometry" />
        </mxCell>
        <mxCell id="dd1BdkEe9ov50hIlFdav-16" style="edgeStyle=orthogonalEdgeStyle;rounded=0;orthogonalLoop=1;jettySize=auto;html=1;exitX=0.5;exitY=1;exitDx=0;exitDy=0;entryX=0;entryY=0.5;entryDx=0;entryDy=0;endArrow=ERoneToMany;endFill=0;startArrow=ERmandOne;startFill=0;" parent="1" source="zyWTynDUfDF3k8TMz7bk-305" target="d92FIJJa25exs1OfrTLI-37" edge="1">
          <mxGeometry relative="1" as="geometry">
            <Array as="points">
              <mxPoint x="615" y="226" />
            </Array>
          </mxGeometry>
        </mxCell>
        <mxCell id="zyWTynDUfDF3k8TMz7bk-305" value="Agency" style="whiteSpace=wrap;html=1;align=center;labelBackgroundColor=none;rounded=0;backgroundOutline=0;" parent="1" vertex="1">
          <mxGeometry x="565" y="99" width="100" height="40" as="geometry" />
        </mxCell>
        <mxCell id="zyWTynDUfDF3k8TMz7bk-308" value="Drivers" style="whiteSpace=wrap;html=1;align=center;labelBackgroundColor=none;rounded=0;backgroundOutline=0;" parent="1" vertex="1">
          <mxGeometry x="527" y="323" width="100" height="40" as="geometry" />
        </mxCell>
        <mxCell id="dd1BdkEe9ov50hIlFdav-20" style="edgeStyle=orthogonalEdgeStyle;rounded=0;orthogonalLoop=1;jettySize=auto;html=1;exitX=1;exitY=0.5;exitDx=0;exitDy=0;entryX=0;entryY=0.5;entryDx=0;entryDy=0;endArrow=ERzeroToMany;endFill=0;startArrow=ERmandOne;startFill=0;" parent="1" source="zyWTynDUfDF3k8TMz7bk-309" target="zyWTynDUfDF3k8TMz7bk-308" edge="1">
          <mxGeometry relative="1" as="geometry" />
        </mxCell>
        <mxCell id="zyWTynDUfDF3k8TMz7bk-309" value="Employee" style="whiteSpace=wrap;html=1;align=center;labelBackgroundColor=none;rounded=0;backgroundOutline=0;" parent="1" vertex="1">
          <mxGeometry x="243" y="310" width="100" height="40" as="geometry" />
        </mxCell>
        <mxCell id="dd1BdkEe9ov50hIlFdav-28" style="edgeStyle=orthogonalEdgeStyle;rounded=0;orthogonalLoop=1;jettySize=auto;html=1;exitX=0.5;exitY=0;exitDx=0;exitDy=0;entryX=0;entryY=0.5;entryDx=0;entryDy=0;endArrow=ERzeroToMany;endFill=0;startArrow=ERmandOne;startFill=0;" parent="1" source="zyWTynDUfDF3k8TMz7bk-311" target="zyWTynDUfDF3k8TMz7bk-312" edge="1">
          <mxGeometry relative="1" as="geometry" />
        </mxCell>
        <mxCell id="zyWTynDUfDF3k8TMz7bk-310" value="Ticket" style="whiteSpace=wrap;html=1;align=center;labelBackgroundColor=none;rounded=0;backgroundOutline=0;" parent="1" vertex="1">
          <mxGeometry x="294" y="591" width="100" height="40" as="geometry" />
        </mxCell>
        <mxCell id="dd1BdkEe9ov50hIlFdav-27" style="edgeStyle=orthogonalEdgeStyle;rounded=0;orthogonalLoop=1;jettySize=auto;html=1;exitX=0;exitY=0.5;exitDx=0;exitDy=0;entryX=1;entryY=0.5;entryDx=0;entryDy=0;endArrow=ERzeroToMany;endFill=0;startArrow=ERmandOne;startFill=0;" parent="1" source="zyWTynDUfDF3k8TMz7bk-311" target="zyWTynDUfDF3k8TMz7bk-310" edge="1">
          <mxGeometry relative="1" as="geometry" />
        </mxCell>
        <mxCell id="zyWTynDUfDF3k8TMz7bk-311" value="Passenger" style="whiteSpace=wrap;html=1;align=center;labelBackgroundColor=none;rounded=0;backgroundOutline=0;" parent="1" vertex="1">
          <mxGeometry x="680" y="591" width="100" height="40" as="geometry" />
        </mxCell>
        <mxCell id="zyWTynDUfDF3k8TMz7bk-312" value="Goods" style="whiteSpace=wrap;html=1;align=center;labelBackgroundColor=none;rounded=0;backgroundOutline=0;" parent="1" vertex="1">
          <mxGeometry x="820" y="482" width="100" height="40" as="geometry" />
        </mxCell>
        <mxCell id="cEiwVnGeLsNNu_YkjOEf-14" style="rounded=0;orthogonalLoop=1;jettySize=auto;html=1;labelBackgroundColor=none;fontColor=default;backgroundOutline=0;endArrow=none;startFill=0;exitX=1;exitY=0.5;exitDx=0;exitDy=0;entryX=0;entryY=0;entryDx=0;entryDy=0;edgeStyle=orthogonalEdgeStyle;" parent="1" source="K4GaCU7EKNPxEDtjbrX5-1" target="zyWTynDUfDF3k8TMz7bk-304" edge="1">
          <mxGeometry relative="1" as="geometry">
            <mxPoint x="140.02950399988458" y="61.27127940736034" as="sourcePoint" />
            <mxPoint x="183" y="96" as="targetPoint" />
          </mxGeometry>
        </mxCell>
        <mxCell id="cEiwVnGeLsNNu_YkjOEf-13" style="edgeStyle=orthogonalEdgeStyle;rounded=0;orthogonalLoop=1;jettySize=auto;html=1;exitX=1;exitY=1;exitDx=0;exitDy=0;entryX=0;entryY=0.5;entryDx=0;entryDy=0;labelBackgroundColor=none;fontColor=default;backgroundOutline=0;endArrow=none;startFill=0;" parent="1" source="d92FIJJa25exs1OfrTLI-3" target="zyWTynDUfDF3k8TMz7bk-304" edge="1">
          <mxGeometry relative="1" as="geometry" />
        </mxCell>
        <mxCell id="d92FIJJa25exs1OfrTLI-3" value="password" style="ellipse;whiteSpace=wrap;html=1;align=center;labelBackgroundColor=none;rounded=0;backgroundOutline=0;" parent="1" vertex="1">
          <mxGeometry x="14" y="67" width="100" height="40" as="geometry" />
        </mxCell>
        <mxCell id="cEiwVnGeLsNNu_YkjOEf-39" value="" style="rounded=0;orthogonalLoop=1;jettySize=auto;html=1;labelBackgroundColor=none;fontColor=default;backgroundOutline=0;endArrow=none;startFill=0;entryX=0.75;entryY=0;entryDx=0;entryDy=0;edgeStyle=orthogonalEdgeStyle;" parent="1" source="d92FIJJa25exs1OfrTLI-4" target="zyWTynDUfDF3k8TMz7bk-305" edge="1">
          <mxGeometry relative="1" as="geometry">
            <mxPoint x="661" y="57" as="targetPoint" />
          </mxGeometry>
        </mxCell>
        <mxCell id="d92FIJJa25exs1OfrTLI-4" value="name" style="ellipse;whiteSpace=wrap;html=1;align=center;labelBackgroundColor=none;rounded=0;backgroundOutline=0;" parent="1" vertex="1">
          <mxGeometry x="654" y="9" width="100" height="40" as="geometry" />
        </mxCell>
        <mxCell id="-8xyfi9ZjJV_24Lj2asy-28" style="rounded=0;orthogonalLoop=1;jettySize=auto;html=1;exitX=0;exitY=0.5;exitDx=0;exitDy=0;endArrow=none;startFill=0;entryX=1;entryY=0.25;entryDx=0;entryDy=0;edgeStyle=orthogonalEdgeStyle;" parent="1" source="d92FIJJa25exs1OfrTLI-6" target="zyWTynDUfDF3k8TMz7bk-305" edge="1">
          <mxGeometry relative="1" as="geometry">
            <mxPoint x="692" y="119" as="targetPoint" />
          </mxGeometry>
        </mxCell>
        <mxCell id="d92FIJJa25exs1OfrTLI-6" value="description" style="ellipse;whiteSpace=wrap;html=1;align=center;labelBackgroundColor=none;rounded=0;backgroundOutline=0;" parent="1" vertex="1">
          <mxGeometry x="778" y="89" width="100" height="40" as="geometry" />
        </mxCell>
        <mxCell id="nZUH5uKoHN7z93Af-GjR-201" style="edgeStyle=orthogonalEdgeStyle;rounded=0;orthogonalLoop=1;jettySize=auto;html=1;exitX=0.75;exitY=1;exitDx=0;exitDy=0;entryX=0;entryY=0.5;entryDx=0;entryDy=0;endArrow=none;startFill=0;" parent="1" source="d92FIJJa25exs1OfrTLI-37" target="nZUH5uKoHN7z93Af-GjR-200" edge="1">
          <mxGeometry relative="1" as="geometry" />
        </mxCell>
        <mxCell id="d92FIJJa25exs1OfrTLI-37" value="Bus" style="whiteSpace=wrap;html=1;align=center;labelBackgroundColor=none;rounded=0;backgroundOutline=0;" parent="1" vertex="1">
          <mxGeometry x="831" y="206" width="100" height="40" as="geometry" />
        </mxCell>
        <mxCell id="d92FIJJa25exs1OfrTLI-40" value="Bus-brand" style="ellipse;whiteSpace=wrap;html=1;align=center;labelBackgroundColor=none;rounded=0;backgroundOutline=0;" parent="1" vertex="1">
          <mxGeometry x="983" y="120" width="100" height="40" as="geometry" />
        </mxCell>
        <mxCell id="cEiwVnGeLsNNu_YkjOEf-31" style="edgeStyle=orthogonalEdgeStyle;rounded=0;orthogonalLoop=1;jettySize=auto;html=1;exitX=0;exitY=0.5;exitDx=0;exitDy=0;entryX=0.64;entryY=0;entryDx=0;entryDy=0;entryPerimeter=0;labelBackgroundColor=none;fontColor=default;backgroundOutline=0;endArrow=none;startFill=0;" parent="1" source="d92FIJJa25exs1OfrTLI-41" target="d92FIJJa25exs1OfrTLI-37" edge="1">
          <mxGeometry relative="1" as="geometry">
            <mxPoint x="872" y="205" as="targetPoint" />
          </mxGeometry>
        </mxCell>
        <mxCell id="d92FIJJa25exs1OfrTLI-41" value="Bus-type" style="ellipse;whiteSpace=wrap;html=1;align=center;labelBackgroundColor=none;rounded=0;backgroundOutline=0;" parent="1" vertex="1">
          <mxGeometry x="947" y="71" width="100" height="40" as="geometry" />
        </mxCell>
        <mxCell id="cEiwVnGeLsNNu_YkjOEf-30" style="edgeStyle=orthogonalEdgeStyle;rounded=0;orthogonalLoop=1;jettySize=auto;html=1;exitX=0;exitY=0.5;exitDx=0;exitDy=0;labelBackgroundColor=none;fontColor=default;backgroundOutline=0;endArrow=none;startFill=0;entryX=0.905;entryY=1.01;entryDx=0;entryDy=0;entryPerimeter=0;" parent="1" source="d92FIJJa25exs1OfrTLI-42" target="d92FIJJa25exs1OfrTLI-37" edge="1">
          <mxGeometry relative="1" as="geometry">
            <mxPoint x="898" y="305" as="targetPoint" />
          </mxGeometry>
        </mxCell>
        <mxCell id="d92FIJJa25exs1OfrTLI-42" value="owner" style="ellipse;whiteSpace=wrap;html=1;align=center;labelBackgroundColor=none;rounded=0;backgroundOutline=0;" parent="1" vertex="1">
          <mxGeometry x="965" y="317" width="100" height="40" as="geometry" />
        </mxCell>
        <mxCell id="d92FIJJa25exs1OfrTLI-43" value="Bus-rotation" style="ellipse;whiteSpace=wrap;html=1;align=center;labelBackgroundColor=none;rounded=0;backgroundOutline=0;" parent="1" vertex="1">
          <mxGeometry x="986" y="273" width="100" height="40" as="geometry" />
        </mxCell>
        <mxCell id="d92FIJJa25exs1OfrTLI-44" style="edgeStyle=orthogonalEdgeStyle;rounded=0;orthogonalLoop=1;jettySize=auto;html=1;exitX=0;exitY=0.5;exitDx=0;exitDy=0;entryX=1;entryY=0.25;entryDx=0;entryDy=0;labelBackgroundColor=none;fontColor=default;backgroundOutline=0;endArrow=none;startFill=0;" parent="1" source="d92FIJJa25exs1OfrTLI-45" target="d92FIJJa25exs1OfrTLI-37" edge="1">
          <mxGeometry relative="1" as="geometry" />
        </mxCell>
        <mxCell id="d92FIJJa25exs1OfrTLI-45" value="model" style="ellipse;whiteSpace=wrap;html=1;align=center;labelBackgroundColor=none;rounded=0;backgroundOutline=0;" parent="1" vertex="1">
          <mxGeometry x="990" y="176" width="100" height="40" as="geometry" />
        </mxCell>
        <mxCell id="d92FIJJa25exs1OfrTLI-52" style="edgeStyle=orthogonalEdgeStyle;rounded=0;orthogonalLoop=1;jettySize=auto;html=1;exitX=0;exitY=0.5;exitDx=0;exitDy=0;entryX=1;entryY=0.5;entryDx=0;entryDy=0;labelBackgroundColor=none;fontColor=default;backgroundOutline=0;endArrow=none;startFill=0;" parent="1" source="d92FIJJa25exs1OfrTLI-47" target="d92FIJJa25exs1OfrTLI-37" edge="1">
          <mxGeometry relative="1" as="geometry" />
        </mxCell>
        <mxCell id="d92FIJJa25exs1OfrTLI-47" value="total number" style="ellipse;whiteSpace=wrap;html=1;align=center;labelBackgroundColor=none;rounded=0;backgroundOutline=0;" parent="1" vertex="1">
          <mxGeometry x="996" y="227" width="100" height="40" as="geometry" />
        </mxCell>
        <mxCell id="d92FIJJa25exs1OfrTLI-49" style="edgeStyle=orthogonalEdgeStyle;rounded=0;orthogonalLoop=1;jettySize=auto;html=1;exitX=0;exitY=0.5;exitDx=0;exitDy=0;entryX=0.91;entryY=0.05;entryDx=0;entryDy=0;entryPerimeter=0;labelBackgroundColor=none;fontColor=default;backgroundOutline=0;endArrow=none;startFill=0;" parent="1" source="d92FIJJa25exs1OfrTLI-40" target="d92FIJJa25exs1OfrTLI-37" edge="1">
          <mxGeometry relative="1" as="geometry" />
        </mxCell>
        <mxCell id="d92FIJJa25exs1OfrTLI-50" style="edgeStyle=orthogonalEdgeStyle;rounded=0;orthogonalLoop=1;jettySize=auto;html=1;exitX=0;exitY=0.5;exitDx=0;exitDy=0;entryX=1;entryY=1;entryDx=0;entryDy=0;labelBackgroundColor=none;fontColor=default;backgroundOutline=0;endArrow=none;startFill=0;" parent="1" source="d92FIJJa25exs1OfrTLI-43" target="d92FIJJa25exs1OfrTLI-37" edge="1">
          <mxGeometry relative="1" as="geometry">
            <mxPoint x="945" y="252" as="targetPoint" />
          </mxGeometry>
        </mxCell>
        <mxCell id="cEiwVnGeLsNNu_YkjOEf-2" value="user type" style="ellipse;shape=doubleEllipse;margin=3;whiteSpace=wrap;html=1;align=center;labelBackgroundColor=none;rounded=0;backgroundOutline=0;" parent="1" vertex="1">
          <mxGeometry x="97" y="166" width="100" height="40" as="geometry" />
        </mxCell>
        <mxCell id="cEiwVnGeLsNNu_YkjOEf-34" style="edgeStyle=orthogonalEdgeStyle;rounded=0;orthogonalLoop=1;jettySize=auto;html=1;exitX=1;exitY=0.5;exitDx=0;exitDy=0;labelBackgroundColor=none;fontColor=default;backgroundOutline=0;endArrow=none;startFill=0;" parent="1" source="cEiwVnGeLsNNu_YkjOEf-5" target="cEiwVnGeLsNNu_YkjOEf-2" edge="1">
          <mxGeometry relative="1" as="geometry" />
        </mxCell>
        <mxCell id="cEiwVnGeLsNNu_YkjOEf-5" value="Admin" style="ellipse;whiteSpace=wrap;html=1;align=center;labelBackgroundColor=none;rounded=0;backgroundOutline=0;" parent="1" vertex="1">
          <mxGeometry x="17" y="121" width="100" height="40" as="geometry" />
        </mxCell>
        <mxCell id="cEiwVnGeLsNNu_YkjOEf-36" style="edgeStyle=orthogonalEdgeStyle;rounded=0;orthogonalLoop=1;jettySize=auto;html=1;exitX=1;exitY=0.5;exitDx=0;exitDy=0;entryX=0.5;entryY=1;entryDx=0;entryDy=0;labelBackgroundColor=none;fontColor=default;backgroundOutline=0;endArrow=none;startFill=0;" parent="1" source="cEiwVnGeLsNNu_YkjOEf-6" target="cEiwVnGeLsNNu_YkjOEf-2" edge="1">
          <mxGeometry relative="1" as="geometry" />
        </mxCell>
        <mxCell id="cEiwVnGeLsNNu_YkjOEf-6" value="user" style="ellipse;whiteSpace=wrap;html=1;align=center;labelBackgroundColor=none;rounded=0;backgroundOutline=0;" parent="1" vertex="1">
          <mxGeometry x="8" y="206" width="100" height="40" as="geometry" />
        </mxCell>
        <mxCell id="cEiwVnGeLsNNu_YkjOEf-11" style="edgeStyle=orthogonalEdgeStyle;rounded=0;orthogonalLoop=1;jettySize=auto;html=1;exitX=1;exitY=0.5;exitDx=0;exitDy=0;entryX=0.34;entryY=1;entryDx=0;entryDy=0;entryPerimeter=0;labelBackgroundColor=none;fontColor=default;backgroundOutline=0;endArrow=none;startFill=0;" parent="1" source="cEiwVnGeLsNNu_YkjOEf-2" target="zyWTynDUfDF3k8TMz7bk-304" edge="1">
          <mxGeometry relative="1" as="geometry">
            <Array as="points">
              <mxPoint x="199" y="186" />
            </Array>
          </mxGeometry>
        </mxCell>
        <mxCell id="cEiwVnGeLsNNu_YkjOEf-15" value="Name" style="ellipse;whiteSpace=wrap;html=1;align=center;labelBackgroundColor=none;rounded=0;backgroundOutline=0;" parent="1" vertex="1">
          <mxGeometry x="162" y="212" width="100" height="40" as="geometry" />
        </mxCell>
        <mxCell id="nZUH5uKoHN7z93Af-GjR-206" style="edgeStyle=orthogonalEdgeStyle;rounded=0;orthogonalLoop=1;jettySize=auto;html=1;exitX=1;exitY=0.5;exitDx=0;exitDy=0;entryX=0.25;entryY=1;entryDx=0;entryDy=0;endArrow=none;startFill=0;" parent="1" source="cEiwVnGeLsNNu_YkjOEf-16" target="zyWTynDUfDF3k8TMz7bk-309" edge="1">
          <mxGeometry relative="1" as="geometry" />
        </mxCell>
        <mxCell id="cEiwVnGeLsNNu_YkjOEf-16" value="Salary" style="ellipse;whiteSpace=wrap;html=1;align=center;labelBackgroundColor=none;rounded=0;backgroundOutline=0;" parent="1" vertex="1">
          <mxGeometry x="94" y="412" width="100" height="43" as="geometry" />
        </mxCell>
        <mxCell id="cEiwVnGeLsNNu_YkjOEf-23" style="edgeStyle=orthogonalEdgeStyle;rounded=0;orthogonalLoop=1;jettySize=auto;html=1;exitX=1;exitY=0.5;exitDx=0;exitDy=0;entryX=0.164;entryY=0.968;entryDx=0;entryDy=0;entryPerimeter=0;labelBackgroundColor=none;fontColor=default;backgroundOutline=0;endArrow=none;startFill=0;" parent="1" source="cEiwVnGeLsNNu_YkjOEf-17" target="zyWTynDUfDF3k8TMz7bk-309" edge="1">
          <mxGeometry relative="1" as="geometry" />
        </mxCell>
        <mxCell id="cEiwVnGeLsNNu_YkjOEf-17" value="Job" style="ellipse;whiteSpace=wrap;html=1;align=center;labelBackgroundColor=none;rounded=0;backgroundOutline=0;" parent="1" vertex="1">
          <mxGeometry x="72" y="365" width="100" height="40" as="geometry" />
        </mxCell>
        <mxCell id="cEiwVnGeLsNNu_YkjOEf-20" style="edgeStyle=orthogonalEdgeStyle;rounded=0;orthogonalLoop=1;jettySize=auto;html=1;exitX=1;exitY=0.5;exitDx=0;exitDy=0;entryX=0;entryY=0.5;entryDx=0;entryDy=0;labelBackgroundColor=none;fontColor=default;backgroundOutline=0;endArrow=none;startFill=0;" parent="1" source="cEiwVnGeLsNNu_YkjOEf-18" target="zyWTynDUfDF3k8TMz7bk-309" edge="1">
          <mxGeometry relative="1" as="geometry" />
        </mxCell>
        <mxCell id="cEiwVnGeLsNNu_YkjOEf-18" value="PH-No" style="ellipse;whiteSpace=wrap;html=1;align=center;labelBackgroundColor=none;rounded=0;backgroundOutline=0;" parent="1" vertex="1">
          <mxGeometry x="66" y="310" width="100" height="40" as="geometry" />
        </mxCell>
        <mxCell id="cEiwVnGeLsNNu_YkjOEf-27" value="ID" style="ellipse;whiteSpace=wrap;html=1;align=center;fontStyle=4;labelBackgroundColor=none;rounded=0;backgroundOutline=0;" parent="1" vertex="1">
          <mxGeometry x="94" y="258" width="100" height="40" as="geometry" />
        </mxCell>
        <mxCell id="cEiwVnGeLsNNu_YkjOEf-28" style="edgeStyle=orthogonalEdgeStyle;rounded=0;orthogonalLoop=1;jettySize=auto;html=1;exitX=1;exitY=0.5;exitDx=0;exitDy=0;entryX=0.23;entryY=0;entryDx=0;entryDy=0;entryPerimeter=0;labelBackgroundColor=none;fontColor=default;backgroundOutline=0;endArrow=none;startFill=0;" parent="1" source="cEiwVnGeLsNNu_YkjOEf-27" target="zyWTynDUfDF3k8TMz7bk-309" edge="1">
          <mxGeometry relative="1" as="geometry" />
        </mxCell>
        <mxCell id="cEiwVnGeLsNNu_YkjOEf-29" style="edgeStyle=orthogonalEdgeStyle;rounded=0;orthogonalLoop=1;jettySize=auto;html=1;exitX=1;exitY=0.5;exitDx=0;exitDy=0;entryX=0.52;entryY=0;entryDx=0;entryDy=0;entryPerimeter=0;labelBackgroundColor=none;fontColor=default;backgroundOutline=0;endArrow=none;startFill=0;" parent="1" source="cEiwVnGeLsNNu_YkjOEf-15" target="zyWTynDUfDF3k8TMz7bk-309" edge="1">
          <mxGeometry relative="1" as="geometry" />
        </mxCell>
        <mxCell id="cEiwVnGeLsNNu_YkjOEf-45" style="edgeStyle=orthogonalEdgeStyle;rounded=0;orthogonalLoop=1;jettySize=auto;html=1;exitX=0;exitY=0.5;exitDx=0;exitDy=0;entryX=1;entryY=0.625;entryDx=0;entryDy=0;labelBackgroundColor=none;fontColor=default;backgroundOutline=0;endArrow=none;startFill=0;entryPerimeter=0;" parent="1" source="cEiwVnGeLsNNu_YkjOEf-42" target="zyWTynDUfDF3k8TMz7bk-305" edge="1">
          <mxGeometry relative="1" as="geometry" />
        </mxCell>
        <mxCell id="cEiwVnGeLsNNu_YkjOEf-42" value="ID" style="ellipse;whiteSpace=wrap;html=1;align=center;fontStyle=4;labelBackgroundColor=none;rounded=0;backgroundOutline=0;" parent="1" vertex="1">
          <mxGeometry x="713" y="155" width="100" height="40" as="geometry" />
        </mxCell>
        <mxCell id="cEiwVnGeLsNNu_YkjOEf-46" value="ID" style="ellipse;whiteSpace=wrap;html=1;align=center;fontStyle=4;labelBackgroundColor=none;rounded=0;backgroundOutline=0;" parent="1" vertex="1">
          <mxGeometry x="527" y="238" width="100" height="40" as="geometry" />
        </mxCell>
        <mxCell id="cEiwVnGeLsNNu_YkjOEf-47" value="name" style="ellipse;whiteSpace=wrap;html=1;align=center;labelBackgroundColor=none;rounded=0;backgroundOutline=0;" parent="1" vertex="1">
          <mxGeometry x="648" y="264" width="100" height="40" as="geometry" />
        </mxCell>
        <mxCell id="cEiwVnGeLsNNu_YkjOEf-68" style="edgeStyle=orthogonalEdgeStyle;rounded=0;orthogonalLoop=1;jettySize=auto;html=1;exitX=1;exitY=0.5;exitDx=0;exitDy=0;entryX=0.25;entryY=1;entryDx=0;entryDy=0;labelBackgroundColor=none;fontColor=default;backgroundOutline=0;endArrow=none;startFill=0;" parent="1" source="cEiwVnGeLsNNu_YkjOEf-48" target="zyWTynDUfDF3k8TMz7bk-308" edge="1">
          <mxGeometry relative="1" as="geometry" />
        </mxCell>
        <mxCell id="cEiwVnGeLsNNu_YkjOEf-48" value="License-NO" style="ellipse;whiteSpace=wrap;html=1;align=center;labelBackgroundColor=none;rounded=0;backgroundOutline=0;" parent="1" vertex="1">
          <mxGeometry x="422" y="380" width="100" height="40" as="geometry" />
        </mxCell>
        <mxCell id="cEiwVnGeLsNNu_YkjOEf-49" value="Ph-NO" style="ellipse;whiteSpace=wrap;html=1;align=center;labelBackgroundColor=none;rounded=0;backgroundOutline=0;" parent="1" vertex="1">
          <mxGeometry x="522" y="417" width="100" height="40" as="geometry" />
        </mxCell>
        <mxCell id="cEiwVnGeLsNNu_YkjOEf-50" value="Add" style="ellipse;whiteSpace=wrap;html=1;align=center;labelBackgroundColor=none;rounded=0;backgroundOutline=0;" parent="1" vertex="1">
          <mxGeometry x="632" y="377" width="100" height="40" as="geometry" />
        </mxCell>
        <mxCell id="cEiwVnGeLsNNu_YkjOEf-67" style="edgeStyle=orthogonalEdgeStyle;rounded=0;orthogonalLoop=1;jettySize=auto;html=1;exitX=0;exitY=0.5;exitDx=0;exitDy=0;entryX=0.82;entryY=0;entryDx=0;entryDy=0;labelBackgroundColor=none;fontColor=default;endArrow=none;startFill=0;backgroundOutline=0;entryPerimeter=0;" parent="1" source="cEiwVnGeLsNNu_YkjOEf-47" target="zyWTynDUfDF3k8TMz7bk-308" edge="1">
          <mxGeometry relative="1" as="geometry">
            <mxPoint x="631.0000000000002" y="280" as="sourcePoint" />
            <mxPoint x="598" y="340" as="targetPoint" />
          </mxGeometry>
        </mxCell>
        <mxCell id="cEiwVnGeLsNNu_YkjOEf-69" style="edgeStyle=orthogonalEdgeStyle;rounded=0;orthogonalLoop=1;jettySize=auto;html=1;exitX=0.5;exitY=0;exitDx=0;exitDy=0;entryX=0.44;entryY=1;entryDx=0;entryDy=0;entryPerimeter=0;labelBackgroundColor=none;fontColor=default;endArrow=none;startFill=0;backgroundOutline=0;" parent="1" source="cEiwVnGeLsNNu_YkjOEf-49" target="zyWTynDUfDF3k8TMz7bk-308" edge="1">
          <mxGeometry relative="1" as="geometry" />
        </mxCell>
        <mxCell id="cEiwVnGeLsNNu_YkjOEf-70" style="edgeStyle=orthogonalEdgeStyle;rounded=0;orthogonalLoop=1;jettySize=auto;html=1;exitX=0;exitY=0.5;exitDx=0;exitDy=0;entryX=0.65;entryY=1;entryDx=0;entryDy=0;entryPerimeter=0;labelBackgroundColor=none;fontColor=default;endArrow=none;startFill=0;backgroundOutline=0;" parent="1" source="cEiwVnGeLsNNu_YkjOEf-50" target="zyWTynDUfDF3k8TMz7bk-308" edge="1">
          <mxGeometry relative="1" as="geometry" />
        </mxCell>
        <mxCell id="cEiwVnGeLsNNu_YkjOEf-72" style="edgeStyle=orthogonalEdgeStyle;rounded=0;orthogonalLoop=1;jettySize=auto;html=1;exitX=0;exitY=0.5;exitDx=0;exitDy=0;labelBackgroundColor=none;fontColor=default;backgroundOutline=0;endArrow=none;startFill=0;" parent="1" source="cEiwVnGeLsNNu_YkjOEf-71" target="d92FIJJa25exs1OfrTLI-37" edge="1">
          <mxGeometry relative="1" as="geometry" />
        </mxCell>
        <mxCell id="cEiwVnGeLsNNu_YkjOEf-71" value="reg-NO" style="ellipse;whiteSpace=wrap;html=1;align=center;fontStyle=4;labelBackgroundColor=none;rounded=0;backgroundOutline=0;" parent="1" vertex="1">
          <mxGeometry x="909" y="21" width="100" height="40" as="geometry" />
        </mxCell>
        <mxCell id="cEiwVnGeLsNNu_YkjOEf-89" style="edgeStyle=orthogonalEdgeStyle;rounded=0;orthogonalLoop=1;jettySize=auto;html=1;exitX=0;exitY=0.5;exitDx=0;exitDy=0;entryX=1;entryY=0.5;entryDx=0;entryDy=0;labelBackgroundColor=none;fontColor=default;backgroundOutline=0;endArrow=none;startFill=0;" parent="1" source="nZUH5uKoHN7z93Af-GjR-228" target="zyWTynDUfDF3k8TMz7bk-310" edge="1">
          <mxGeometry relative="1" as="geometry">
            <Array as="points">
              <mxPoint x="487" y="580" />
              <mxPoint x="419" y="580" />
              <mxPoint x="419" y="601" />
              <mxPoint x="394" y="601" />
            </Array>
            <mxPoint x="471.00000000001273" y="576" as="sourcePoint" />
          </mxGeometry>
        </mxCell>
        <mxCell id="cEiwVnGeLsNNu_YkjOEf-74" value="seat NO" style="ellipse;whiteSpace=wrap;html=1;align=center;labelBackgroundColor=none;rounded=0;backgroundOutline=0;" parent="1" vertex="1">
          <mxGeometry x="409" y="631" width="100" height="40" as="geometry" />
        </mxCell>
        <mxCell id="cEiwVnGeLsNNu_YkjOEf-76" value="to" style="ellipse;whiteSpace=wrap;html=1;align=center;labelBackgroundColor=none;rounded=0;backgroundOutline=0;" parent="1" vertex="1">
          <mxGeometry x="162" y="747" width="100" height="40" as="geometry" />
        </mxCell>
        <mxCell id="cEiwVnGeLsNNu_YkjOEf-84" style="edgeStyle=orthogonalEdgeStyle;rounded=0;orthogonalLoop=1;jettySize=auto;html=1;exitX=1;exitY=0.5;exitDx=0;exitDy=0;entryX=0;entryY=0.5;entryDx=0;entryDy=0;labelBackgroundColor=none;fontColor=default;backgroundOutline=0;endArrow=none;startFill=0;" parent="1" source="cEiwVnGeLsNNu_YkjOEf-77" target="zyWTynDUfDF3k8TMz7bk-310" edge="1">
          <mxGeometry relative="1" as="geometry" />
        </mxCell>
        <mxCell id="cEiwVnGeLsNNu_YkjOEf-77" value="from" style="ellipse;whiteSpace=wrap;html=1;align=center;labelBackgroundColor=none;rounded=0;backgroundOutline=0;" parent="1" vertex="1">
          <mxGeometry x="51" y="625" width="100" height="40" as="geometry" />
        </mxCell>
        <mxCell id="cEiwVnGeLsNNu_YkjOEf-87" style="edgeStyle=orthogonalEdgeStyle;rounded=0;orthogonalLoop=1;jettySize=auto;html=1;exitX=1;exitY=0.5;exitDx=0;exitDy=0;entryX=0;entryY=0.25;entryDx=0;entryDy=0;labelBackgroundColor=none;fontColor=default;backgroundOutline=0;endArrow=none;startFill=0;" parent="1" source="cEiwVnGeLsNNu_YkjOEf-78" target="zyWTynDUfDF3k8TMz7bk-310" edge="1">
          <mxGeometry relative="1" as="geometry" />
        </mxCell>
        <mxCell id="cEiwVnGeLsNNu_YkjOEf-78" value="date" style="ellipse;whiteSpace=wrap;html=1;align=center;labelBackgroundColor=none;rounded=0;backgroundOutline=0;" parent="1" vertex="1">
          <mxGeometry x="51" y="581" width="100" height="40" as="geometry" />
        </mxCell>
        <mxCell id="cEiwVnGeLsNNu_YkjOEf-90" style="edgeStyle=orthogonalEdgeStyle;rounded=0;orthogonalLoop=1;jettySize=auto;html=1;exitX=0;exitY=0.5;exitDx=0;exitDy=0;labelBackgroundColor=none;fontColor=default;backgroundOutline=0;endArrow=none;startFill=0;entryX=0.94;entryY=0;entryDx=0;entryDy=0;entryPerimeter=0;" parent="1" source="cEiwVnGeLsNNu_YkjOEf-80" target="zyWTynDUfDF3k8TMz7bk-310" edge="1">
          <mxGeometry relative="1" as="geometry">
            <mxPoint x="404" y="558" as="targetPoint" />
          </mxGeometry>
        </mxCell>
        <mxCell id="cEiwVnGeLsNNu_YkjOEf-80" value="Pas-name&amp;nbsp;" style="ellipse;whiteSpace=wrap;html=1;align=center;labelBackgroundColor=none;rounded=0;backgroundOutline=0;" parent="1" vertex="1">
          <mxGeometry x="419" y="519" width="97" height="36" as="geometry" />
        </mxCell>
        <mxCell id="cEiwVnGeLsNNu_YkjOEf-85" style="edgeStyle=orthogonalEdgeStyle;rounded=0;orthogonalLoop=1;jettySize=auto;html=1;exitX=1;exitY=0.5;exitDx=0;exitDy=0;entryX=0.14;entryY=1;entryDx=0;entryDy=0;entryPerimeter=0;labelBackgroundColor=none;fontColor=default;backgroundOutline=0;endArrow=none;startFill=0;" parent="1" source="cEiwVnGeLsNNu_YkjOEf-76" target="zyWTynDUfDF3k8TMz7bk-310" edge="1">
          <mxGeometry relative="1" as="geometry" />
        </mxCell>
        <mxCell id="cEiwVnGeLsNNu_YkjOEf-86" style="edgeStyle=orthogonalEdgeStyle;rounded=0;orthogonalLoop=1;jettySize=auto;html=1;exitX=0;exitY=0.5;exitDx=0;exitDy=0;entryX=0.61;entryY=1;entryDx=0;entryDy=0;entryPerimeter=0;labelBackgroundColor=none;fontColor=default;backgroundOutline=0;endArrow=none;startFill=0;" parent="1" source="nZUH5uKoHN7z93Af-GjR-227" target="zyWTynDUfDF3k8TMz7bk-310" edge="1">
          <mxGeometry relative="1" as="geometry">
            <mxPoint x="378" y="695" as="sourcePoint" />
          </mxGeometry>
        </mxCell>
        <mxCell id="cEiwVnGeLsNNu_YkjOEf-91" value="type" style="ellipse;shape=doubleEllipse;margin=3;whiteSpace=wrap;html=1;align=center;labelBackgroundColor=none;rounded=0;backgroundOutline=0;" parent="1" vertex="1">
          <mxGeometry x="190" y="524" width="100" height="40" as="geometry" />
        </mxCell>
        <mxCell id="cEiwVnGeLsNNu_YkjOEf-94" style="edgeStyle=orthogonalEdgeStyle;rounded=0;orthogonalLoop=1;jettySize=auto;html=1;exitX=1;exitY=0.5;exitDx=0;exitDy=0;entryX=0.3;entryY=0;entryDx=0;entryDy=0;entryPerimeter=0;labelBackgroundColor=none;fontColor=default;backgroundOutline=0;endArrow=none;startFill=0;" parent="1" source="cEiwVnGeLsNNu_YkjOEf-91" target="zyWTynDUfDF3k8TMz7bk-310" edge="1">
          <mxGeometry relative="1" as="geometry" />
        </mxCell>
        <mxCell id="cEiwVnGeLsNNu_YkjOEf-97" style="edgeStyle=orthogonalEdgeStyle;rounded=0;orthogonalLoop=1;jettySize=auto;html=1;exitX=1;exitY=0.5;exitDx=0;exitDy=0;labelBackgroundColor=none;fontColor=default;backgroundOutline=0;endArrow=none;startFill=0;" parent="1" source="cEiwVnGeLsNNu_YkjOEf-95" target="cEiwVnGeLsNNu_YkjOEf-91" edge="1">
          <mxGeometry relative="1" as="geometry" />
        </mxCell>
        <mxCell id="cEiwVnGeLsNNu_YkjOEf-95" value="VIP" style="ellipse;whiteSpace=wrap;html=1;align=center;labelBackgroundColor=none;rounded=0;backgroundOutline=0;" parent="1" vertex="1">
          <mxGeometry x="59" y="480" width="100" height="40" as="geometry" />
        </mxCell>
        <mxCell id="cEiwVnGeLsNNu_YkjOEf-98" style="edgeStyle=orthogonalEdgeStyle;rounded=0;orthogonalLoop=1;jettySize=auto;html=1;exitX=1;exitY=0.5;exitDx=0;exitDy=0;labelBackgroundColor=none;fontColor=default;backgroundOutline=0;endArrow=none;startFill=0;" parent="1" source="cEiwVnGeLsNNu_YkjOEf-96" target="cEiwVnGeLsNNu_YkjOEf-91" edge="1">
          <mxGeometry relative="1" as="geometry" />
        </mxCell>
        <mxCell id="cEiwVnGeLsNNu_YkjOEf-96" value="Normal" style="ellipse;whiteSpace=wrap;html=1;align=center;labelBackgroundColor=none;rounded=0;backgroundOutline=0;" parent="1" vertex="1">
          <mxGeometry x="33" y="524" width="100" height="40" as="geometry" />
        </mxCell>
        <mxCell id="8FaIMaNIHu-IjfOQpyqI-1" value="name" style="ellipse;whiteSpace=wrap;html=1;align=center;labelBackgroundColor=none;rounded=0;backgroundOutline=0;" parent="1" vertex="1">
          <mxGeometry x="805" y="645" width="100" height="40" as="geometry" />
        </mxCell>
        <mxCell id="8FaIMaNIHu-IjfOQpyqI-5" value="Add" style="ellipse;whiteSpace=wrap;html=1;align=center;labelBackgroundColor=none;rounded=0;backgroundOutline=0;" parent="1" vertex="1">
          <mxGeometry x="760" y="21" width="100" height="40" as="geometry" />
        </mxCell>
        <mxCell id="8FaIMaNIHu-IjfOQpyqI-17" style="edgeStyle=orthogonalEdgeStyle;rounded=0;orthogonalLoop=1;jettySize=auto;html=1;exitX=0.5;exitY=0;exitDx=0;exitDy=0;entryX=0.25;entryY=1;entryDx=0;entryDy=0;labelBackgroundColor=none;fontColor=default;backgroundOutline=0;endArrow=none;startFill=0;" parent="1" source="8FaIMaNIHu-IjfOQpyqI-14" target="zyWTynDUfDF3k8TMz7bk-311" edge="1">
          <mxGeometry relative="1" as="geometry" />
        </mxCell>
        <mxCell id="8FaIMaNIHu-IjfOQpyqI-14" value="NO-of-tic" style="ellipse;whiteSpace=wrap;html=1;align=center;labelBackgroundColor=none;rounded=0;backgroundOutline=0;" parent="1" vertex="1">
          <mxGeometry x="689" y="720" width="100" height="40" as="geometry" />
        </mxCell>
        <mxCell id="8FaIMaNIHu-IjfOQpyqI-21" style="edgeStyle=orthogonalEdgeStyle;rounded=0;orthogonalLoop=1;jettySize=auto;html=1;exitX=1;exitY=0;exitDx=0;exitDy=0;entryX=0.07;entryY=0.975;entryDx=0;entryDy=0;entryPerimeter=0;labelBackgroundColor=none;fontColor=default;backgroundOutline=0;endArrow=none;startFill=0;" parent="1" source="8FaIMaNIHu-IjfOQpyqI-15" target="zyWTynDUfDF3k8TMz7bk-311" edge="1">
          <mxGeometry relative="1" as="geometry" />
        </mxCell>
        <mxCell id="8FaIMaNIHu-IjfOQpyqI-15" value="Ph-NO" style="ellipse;whiteSpace=wrap;html=1;align=center;labelBackgroundColor=none;rounded=0;backgroundOutline=0;" parent="1" vertex="1">
          <mxGeometry x="601" y="689" width="100" height="40" as="geometry" />
        </mxCell>
        <mxCell id="-8xyfi9ZjJV_24Lj2asy-2" style="edgeStyle=orthogonalEdgeStyle;rounded=0;orthogonalLoop=1;jettySize=auto;html=1;exitX=0;exitY=0;exitDx=0;exitDy=0;entryX=0.85;entryY=0.95;entryDx=0;entryDy=0;entryPerimeter=0;labelBackgroundColor=none;fontColor=default;backgroundOutline=0;endArrow=none;startFill=0;" parent="1" source="8FaIMaNIHu-IjfOQpyqI-1" target="zyWTynDUfDF3k8TMz7bk-311" edge="1">
          <mxGeometry relative="1" as="geometry" />
        </mxCell>
        <mxCell id="-8xyfi9ZjJV_24Lj2asy-7" value="rent" style="ellipse;whiteSpace=wrap;html=1;align=center;labelBackgroundColor=none;rounded=0;backgroundOutline=0;" parent="1" vertex="1">
          <mxGeometry x="757" y="541" width="100" height="40" as="geometry" />
        </mxCell>
        <mxCell id="-8xyfi9ZjJV_24Lj2asy-8" value="weight" style="ellipse;whiteSpace=wrap;html=1;align=center;labelBackgroundColor=none;rounded=0;backgroundOutline=0;" parent="1" vertex="1">
          <mxGeometry x="941" y="565" width="100" height="40" as="geometry" />
        </mxCell>
        <mxCell id="-8xyfi9ZjJV_24Lj2asy-9" value="Description" style="ellipse;whiteSpace=wrap;html=1;align=center;labelBackgroundColor=none;rounded=0;backgroundOutline=0;" parent="1" vertex="1">
          <mxGeometry x="831" y="589" width="100" height="40" as="geometry" />
        </mxCell>
        <mxCell id="-8xyfi9ZjJV_24Lj2asy-13" style="edgeStyle=orthogonalEdgeStyle;rounded=0;orthogonalLoop=1;jettySize=auto;html=1;exitX=1;exitY=0.5;exitDx=0;exitDy=0;entryX=0.43;entryY=1;entryDx=0;entryDy=0;entryPerimeter=0;labelBackgroundColor=none;fontColor=default;backgroundOutline=0;endArrow=none;startFill=0;" parent="1" source="-8xyfi9ZjJV_24Lj2asy-7" target="zyWTynDUfDF3k8TMz7bk-312" edge="1">
          <mxGeometry relative="1" as="geometry" />
        </mxCell>
        <mxCell id="-8xyfi9ZjJV_24Lj2asy-14" style="edgeStyle=orthogonalEdgeStyle;rounded=0;orthogonalLoop=1;jettySize=auto;html=1;exitX=0.5;exitY=0;exitDx=0;exitDy=0;entryX=0.62;entryY=1;entryDx=0;entryDy=0;entryPerimeter=0;labelBackgroundColor=none;fontColor=default;backgroundOutline=0;endArrow=none;startFill=0;" parent="1" source="-8xyfi9ZjJV_24Lj2asy-9" target="zyWTynDUfDF3k8TMz7bk-312" edge="1">
          <mxGeometry relative="1" as="geometry" />
        </mxCell>
        <mxCell id="-8xyfi9ZjJV_24Lj2asy-15" style="edgeStyle=orthogonalEdgeStyle;rounded=0;orthogonalLoop=1;jettySize=auto;html=1;exitX=0;exitY=0;exitDx=0;exitDy=0;entryX=0.69;entryY=0.975;entryDx=0;entryDy=0;entryPerimeter=0;labelBackgroundColor=none;fontColor=default;backgroundOutline=0;endArrow=none;startFill=0;" parent="1" source="-8xyfi9ZjJV_24Lj2asy-8" target="zyWTynDUfDF3k8TMz7bk-312" edge="1">
          <mxGeometry relative="1" as="geometry" />
        </mxCell>
        <mxCell id="-8xyfi9ZjJV_24Lj2asy-24" value="Company" style="whiteSpace=wrap;html=1;align=center;" parent="1" vertex="1">
          <mxGeometry x="339" y="85" width="100" height="40" as="geometry" />
        </mxCell>
        <mxCell id="dd1BdkEe9ov50hIlFdav-10" style="edgeStyle=orthogonalEdgeStyle;rounded=0;orthogonalLoop=1;jettySize=auto;html=1;exitX=0;exitY=1;exitDx=0;exitDy=0;entryX=0.5;entryY=0;entryDx=0;entryDy=0;endArrow=none;startFill=0;" parent="1" source="-8xyfi9ZjJV_24Lj2asy-25" target="-8xyfi9ZjJV_24Lj2asy-24" edge="1">
          <mxGeometry relative="1" as="geometry" />
        </mxCell>
        <mxCell id="-8xyfi9ZjJV_24Lj2asy-25" value="Add" style="ellipse;whiteSpace=wrap;html=1;align=center;" parent="1" vertex="1">
          <mxGeometry x="377" y="18" width="100" height="40" as="geometry" />
        </mxCell>
        <mxCell id="dd1BdkEe9ov50hIlFdav-5" style="edgeStyle=orthogonalEdgeStyle;rounded=0;orthogonalLoop=1;jettySize=auto;html=1;exitX=1;exitY=1;exitDx=0;exitDy=0;entryX=0.25;entryY=0;entryDx=0;entryDy=0;endArrow=none;startFill=0;" parent="1" source="-8xyfi9ZjJV_24Lj2asy-26" target="-8xyfi9ZjJV_24Lj2asy-24" edge="1">
          <mxGeometry relative="1" as="geometry" />
        </mxCell>
        <mxCell id="-8xyfi9ZjJV_24Lj2asy-26" value="Name" style="ellipse;whiteSpace=wrap;html=1;align=center;" parent="1" vertex="1">
          <mxGeometry x="275" y="32" width="100" height="40" as="geometry" />
        </mxCell>
        <mxCell id="dd1BdkEe9ov50hIlFdav-11" style="edgeStyle=orthogonalEdgeStyle;rounded=0;orthogonalLoop=1;jettySize=auto;html=1;exitX=0;exitY=1;exitDx=0;exitDy=0;entryX=1;entryY=0;entryDx=0;entryDy=0;endArrow=none;startFill=0;" parent="1" source="-8xyfi9ZjJV_24Lj2asy-27" target="-8xyfi9ZjJV_24Lj2asy-24" edge="1">
          <mxGeometry relative="1" as="geometry">
            <Array as="points">
              <mxPoint x="439" y="70" />
            </Array>
          </mxGeometry>
        </mxCell>
        <mxCell id="-8xyfi9ZjJV_24Lj2asy-27" value="description" style="ellipse;whiteSpace=wrap;html=1;align=center;" parent="1" vertex="1">
          <mxGeometry x="460" y="43" width="100" height="40" as="geometry" />
        </mxCell>
        <mxCell id="dd1BdkEe9ov50hIlFdav-9" value="" style="edgeStyle=entityRelationEdgeStyle;fontSize=12;html=1;endArrow=ERzeroToMany;startArrow=ERmandOne;rounded=0;entryX=1;entryY=0.5;entryDx=0;entryDy=0;exitX=0;exitY=0.5;exitDx=0;exitDy=0;endFill=0;" parent="1" source="-8xyfi9ZjJV_24Lj2asy-24" target="zyWTynDUfDF3k8TMz7bk-304" edge="1">
          <mxGeometry width="100" height="100" relative="1" as="geometry">
            <mxPoint x="255" y="249" as="sourcePoint" />
            <mxPoint x="355" y="149" as="targetPoint" />
          </mxGeometry>
        </mxCell>
        <mxCell id="dd1BdkEe9ov50hIlFdav-14" value="" style="edgeStyle=entityRelationEdgeStyle;fontSize=12;html=1;endArrow=ERzeroToMany;startArrow=ERmandOne;rounded=0;entryX=0;entryY=0.5;entryDx=0;entryDy=0;exitX=1;exitY=0.5;exitDx=0;exitDy=0;" parent="1" source="-8xyfi9ZjJV_24Lj2asy-24" target="zyWTynDUfDF3k8TMz7bk-305" edge="1">
          <mxGeometry width="100" height="100" relative="1" as="geometry">
            <mxPoint x="457" y="249" as="sourcePoint" />
            <mxPoint x="557" y="149" as="targetPoint" />
          </mxGeometry>
        </mxCell>
        <mxCell id="dd1BdkEe9ov50hIlFdav-17" style="edgeStyle=orthogonalEdgeStyle;rounded=0;orthogonalLoop=1;jettySize=auto;html=1;exitX=0.25;exitY=1;exitDx=0;exitDy=0;entryX=0.82;entryY=-0.025;entryDx=0;entryDy=0;entryPerimeter=0;endArrow=ERoneToMany;endFill=0;startArrow=ERmandOne;startFill=0;" parent="1" source="zyWTynDUfDF3k8TMz7bk-305" target="zyWTynDUfDF3k8TMz7bk-309" edge="1">
          <mxGeometry relative="1" as="geometry">
            <Array as="points">
              <mxPoint x="590" y="218" />
              <mxPoint x="325" y="218" />
            </Array>
          </mxGeometry>
        </mxCell>
        <mxCell id="dd1BdkEe9ov50hIlFdav-23" style="edgeStyle=orthogonalEdgeStyle;rounded=0;orthogonalLoop=1;jettySize=auto;html=1;exitX=0.5;exitY=1;exitDx=0;exitDy=0;entryX=0.5;entryY=0;entryDx=0;entryDy=0;endArrow=none;startFill=0;" parent="1" source="cEiwVnGeLsNNu_YkjOEf-46" target="zyWTynDUfDF3k8TMz7bk-308" edge="1">
          <mxGeometry relative="1" as="geometry" />
        </mxCell>
        <mxCell id="dd1BdkEe9ov50hIlFdav-24" style="edgeStyle=orthogonalEdgeStyle;rounded=0;orthogonalLoop=1;jettySize=auto;html=1;exitX=1;exitY=0.5;exitDx=0;exitDy=0;entryX=0.17;entryY=1.05;entryDx=0;entryDy=0;entryPerimeter=0;endArrow=ERmandOne;endFill=0;startArrow=ERmandOne;startFill=0;" parent="1" source="zyWTynDUfDF3k8TMz7bk-308" target="d92FIJJa25exs1OfrTLI-37" edge="1">
          <mxGeometry relative="1" as="geometry" />
        </mxCell>
        <mxCell id="dd1BdkEe9ov50hIlFdav-25" value="Tick-ID" style="ellipse;whiteSpace=wrap;html=1;align=center;fontStyle=4;" parent="1" vertex="1">
          <mxGeometry x="234" y="791.5" width="100" height="40" as="geometry" />
        </mxCell>
        <mxCell id="dd1BdkEe9ov50hIlFdav-26" style="edgeStyle=orthogonalEdgeStyle;rounded=0;orthogonalLoop=1;jettySize=auto;html=1;exitX=0.75;exitY=1;exitDx=0;exitDy=0;entryX=0.44;entryY=0;entryDx=0;entryDy=0;entryPerimeter=0;endArrow=ERzeroToMany;endFill=0;startArrow=ERmandOne;startFill=0;" parent="1" source="zyWTynDUfDF3k8TMz7bk-309" target="zyWTynDUfDF3k8TMz7bk-310" edge="1">
          <mxGeometry relative="1" as="geometry" />
        </mxCell>
        <mxCell id="dd1BdkEe9ov50hIlFdav-31" style="edgeStyle=orthogonalEdgeStyle;rounded=0;orthogonalLoop=1;jettySize=auto;html=1;exitX=0.5;exitY=1;exitDx=0;exitDy=0;entryX=0.601;entryY=0.007;entryDx=0;entryDy=0;entryPerimeter=0;endArrow=ERmandOne;endFill=0;startArrow=ERmandOne;startFill=0;" parent="1" source="d92FIJJa25exs1OfrTLI-37" target="zyWTynDUfDF3k8TMz7bk-310" edge="1">
          <mxGeometry relative="1" as="geometry">
            <Array as="points">
              <mxPoint x="881" y="465" />
              <mxPoint x="354" y="465" />
            </Array>
            <mxPoint x="882" y="259" as="sourcePoint" />
            <mxPoint x="357.9999999999998" y="601" as="targetPoint" />
          </mxGeometry>
        </mxCell>
        <mxCell id="dd1BdkEe9ov50hIlFdav-33" style="rounded=0;orthogonalLoop=1;jettySize=auto;html=1;exitX=0.5;exitY=1;exitDx=0;exitDy=0;entryX=0.888;entryY=0.013;entryDx=0;entryDy=0;entryPerimeter=0;endArrow=none;startFill=0;edgeStyle=orthogonalEdgeStyle;" parent="1" source="8FaIMaNIHu-IjfOQpyqI-5" target="zyWTynDUfDF3k8TMz7bk-305" edge="1">
          <mxGeometry relative="1" as="geometry">
            <Array as="points">
              <mxPoint x="807" y="79" />
              <mxPoint x="654" y="79" />
            </Array>
          </mxGeometry>
        </mxCell>
        <mxCell id="dd1BdkEe9ov50hIlFdav-34" style="edgeStyle=orthogonalEdgeStyle;rounded=0;orthogonalLoop=1;jettySize=auto;html=1;exitX=1;exitY=0;exitDx=0;exitDy=0;entryX=0.25;entryY=1;entryDx=0;entryDy=0;endArrow=none;startFill=0;" parent="1" source="dd1BdkEe9ov50hIlFdav-25" target="zyWTynDUfDF3k8TMz7bk-310" edge="1">
          <mxGeometry relative="1" as="geometry" />
        </mxCell>
        <mxCell id="dd1BdkEe9ov50hIlFdav-36" style="edgeStyle=orthogonalEdgeStyle;rounded=0;orthogonalLoop=1;jettySize=auto;html=1;exitX=0.009;exitY=0.65;exitDx=0;exitDy=0;entryX=0.5;entryY=1;entryDx=0;entryDy=0;endArrow=none;startFill=0;exitPerimeter=0;" parent="1" source="nZUH5uKoHN7z93Af-GjR-226" target="zyWTynDUfDF3k8TMz7bk-310" edge="1">
          <mxGeometry relative="1" as="geometry">
            <mxPoint x="371.00000000001273" y="740" as="sourcePoint" />
          </mxGeometry>
        </mxCell>
        <mxCell id="dd1BdkEe9ov50hIlFdav-37" style="edgeStyle=orthogonalEdgeStyle;rounded=0;orthogonalLoop=1;jettySize=auto;html=1;exitX=0;exitY=0.5;exitDx=0;exitDy=0;entryX=0.851;entryY=1.004;entryDx=0;entryDy=0;entryPerimeter=0;endArrow=none;startFill=0;" parent="1" source="cEiwVnGeLsNNu_YkjOEf-74" target="zyWTynDUfDF3k8TMz7bk-310" edge="1">
          <mxGeometry relative="1" as="geometry" />
        </mxCell>
        <mxCell id="IAW-wRPCPbgMJG5teW-d-7" value="&lt;span style=&quot;border-bottom: 1px dotted&quot;&gt;Passenger-ID&lt;/span&gt;" style="ellipse;whiteSpace=wrap;html=1;align=center;" parent="1" vertex="1">
          <mxGeometry x="955" y="524" width="100" height="40" as="geometry" />
        </mxCell>
        <mxCell id="IAW-wRPCPbgMJG5teW-d-8" style="edgeStyle=orthogonalEdgeStyle;rounded=0;orthogonalLoop=1;jettySize=auto;html=1;exitX=0;exitY=0.5;exitDx=0;exitDy=0;entryX=0.828;entryY=1;entryDx=0;entryDy=0;entryPerimeter=0;endArrow=none;startFill=0;" parent="1" source="IAW-wRPCPbgMJG5teW-d-7" target="zyWTynDUfDF3k8TMz7bk-312" edge="1">
          <mxGeometry relative="1" as="geometry" />
        </mxCell>
        <mxCell id="nZUH5uKoHN7z93Af-GjR-3" value="company" style="shape=table;startSize=30;container=1;collapsible=1;childLayout=tableLayout;fixedRows=1;rowLines=0;fontStyle=1;align=center;resizeLast=1;html=1;" parent="1" vertex="1">
          <mxGeometry x="-732" y="18" width="123" height="149" as="geometry" />
        </mxCell>
        <mxCell id="nZUH5uKoHN7z93Af-GjR-4" value="" style="shape=tableRow;horizontal=0;startSize=0;swimlaneHead=0;swimlaneBody=0;fillColor=none;collapsible=0;dropTarget=0;points=[[0,0.5],[1,0.5]];portConstraint=eastwest;top=0;left=0;right=0;bottom=1;" parent="nZUH5uKoHN7z93Af-GjR-3" vertex="1">
          <mxGeometry y="30" width="123" height="29" as="geometry" />
        </mxCell>
        <mxCell id="nZUH5uKoHN7z93Af-GjR-5" value="PK" style="shape=partialRectangle;connectable=0;fillColor=none;top=0;left=0;bottom=0;right=0;fontStyle=1;overflow=hidden;whiteSpace=wrap;html=1;" parent="nZUH5uKoHN7z93Af-GjR-4" vertex="1">
          <mxGeometry width="30" height="29" as="geometry">
            <mxRectangle width="30" height="29" as="alternateBounds" />
          </mxGeometry>
        </mxCell>
        <mxCell id="nZUH5uKoHN7z93Af-GjR-6" value="ID" style="shape=partialRectangle;connectable=0;fillColor=none;top=0;left=0;bottom=0;right=0;align=left;spacingLeft=6;fontStyle=5;overflow=hidden;whiteSpace=wrap;html=1;" parent="nZUH5uKoHN7z93Af-GjR-4" vertex="1">
          <mxGeometry x="30" width="93" height="29" as="geometry">
            <mxRectangle width="93" height="29" as="alternateBounds" />
          </mxGeometry>
        </mxCell>
        <mxCell id="nZUH5uKoHN7z93Af-GjR-7" value="" style="shape=tableRow;horizontal=0;startSize=0;swimlaneHead=0;swimlaneBody=0;fillColor=none;collapsible=0;dropTarget=0;points=[[0,0.5],[1,0.5]];portConstraint=eastwest;top=0;left=0;right=0;bottom=0;" parent="nZUH5uKoHN7z93Af-GjR-3" vertex="1">
          <mxGeometry y="59" width="123" height="30" as="geometry" />
        </mxCell>
        <mxCell id="nZUH5uKoHN7z93Af-GjR-8" value="" style="shape=partialRectangle;connectable=0;fillColor=none;top=0;left=0;bottom=0;right=0;editable=1;overflow=hidden;whiteSpace=wrap;html=1;" parent="nZUH5uKoHN7z93Af-GjR-7" vertex="1">
          <mxGeometry width="30" height="30" as="geometry">
            <mxRectangle width="30" height="30" as="alternateBounds" />
          </mxGeometry>
        </mxCell>
        <mxCell id="nZUH5uKoHN7z93Af-GjR-9" value="Name" style="shape=partialRectangle;connectable=0;fillColor=none;top=0;left=0;bottom=0;right=0;align=left;spacingLeft=6;overflow=hidden;whiteSpace=wrap;html=1;" parent="nZUH5uKoHN7z93Af-GjR-7" vertex="1">
          <mxGeometry x="30" width="93" height="30" as="geometry">
            <mxRectangle width="93" height="30" as="alternateBounds" />
          </mxGeometry>
        </mxCell>
        <mxCell id="nZUH5uKoHN7z93Af-GjR-10" value="" style="shape=tableRow;horizontal=0;startSize=0;swimlaneHead=0;swimlaneBody=0;fillColor=none;collapsible=0;dropTarget=0;points=[[0,0.5],[1,0.5]];portConstraint=eastwest;top=0;left=0;right=0;bottom=0;" parent="nZUH5uKoHN7z93Af-GjR-3" vertex="1">
          <mxGeometry y="89" width="123" height="30" as="geometry" />
        </mxCell>
        <mxCell id="nZUH5uKoHN7z93Af-GjR-11" value="" style="shape=partialRectangle;connectable=0;fillColor=none;top=0;left=0;bottom=0;right=0;editable=1;overflow=hidden;whiteSpace=wrap;html=1;" parent="nZUH5uKoHN7z93Af-GjR-10" vertex="1">
          <mxGeometry width="30" height="30" as="geometry">
            <mxRectangle width="30" height="30" as="alternateBounds" />
          </mxGeometry>
        </mxCell>
        <mxCell id="nZUH5uKoHN7z93Af-GjR-12" value="Address" style="shape=partialRectangle;connectable=0;fillColor=none;top=0;left=0;bottom=0;right=0;align=left;spacingLeft=6;overflow=hidden;whiteSpace=wrap;html=1;" parent="nZUH5uKoHN7z93Af-GjR-10" vertex="1">
          <mxGeometry x="30" width="93" height="30" as="geometry">
            <mxRectangle width="93" height="30" as="alternateBounds" />
          </mxGeometry>
        </mxCell>
        <mxCell id="nZUH5uKoHN7z93Af-GjR-13" value="" style="shape=tableRow;horizontal=0;startSize=0;swimlaneHead=0;swimlaneBody=0;fillColor=none;collapsible=0;dropTarget=0;points=[[0,0.5],[1,0.5]];portConstraint=eastwest;top=0;left=0;right=0;bottom=0;" parent="nZUH5uKoHN7z93Af-GjR-3" vertex="1">
          <mxGeometry y="119" width="123" height="30" as="geometry" />
        </mxCell>
        <mxCell id="nZUH5uKoHN7z93Af-GjR-14" value="" style="shape=partialRectangle;connectable=0;fillColor=none;top=0;left=0;bottom=0;right=0;editable=1;overflow=hidden;whiteSpace=wrap;html=1;" parent="nZUH5uKoHN7z93Af-GjR-13" vertex="1">
          <mxGeometry width="30" height="30" as="geometry">
            <mxRectangle width="30" height="30" as="alternateBounds" />
          </mxGeometry>
        </mxCell>
        <mxCell id="nZUH5uKoHN7z93Af-GjR-15" value="Description" style="shape=partialRectangle;connectable=0;fillColor=none;top=0;left=0;bottom=0;right=0;align=left;spacingLeft=6;overflow=hidden;whiteSpace=wrap;html=1;" parent="nZUH5uKoHN7z93Af-GjR-13" vertex="1">
          <mxGeometry x="30" width="93" height="30" as="geometry">
            <mxRectangle width="93" height="30" as="alternateBounds" />
          </mxGeometry>
        </mxCell>
        <mxCell id="nZUH5uKoHN7z93Af-GjR-16" value="Agency" style="shape=table;startSize=30;container=1;collapsible=1;childLayout=tableLayout;fixedRows=1;rowLines=0;fontStyle=1;align=center;resizeLast=1;html=1;" parent="1" vertex="1">
          <mxGeometry x="-486" y="17" width="129" height="180" as="geometry" />
        </mxCell>
        <mxCell id="nZUH5uKoHN7z93Af-GjR-17" value="" style="shape=tableRow;horizontal=0;startSize=0;swimlaneHead=0;swimlaneBody=0;fillColor=none;collapsible=0;dropTarget=0;points=[[0,0.5],[1,0.5]];portConstraint=eastwest;top=0;left=0;right=0;bottom=1;" parent="nZUH5uKoHN7z93Af-GjR-16" vertex="1">
          <mxGeometry y="30" width="129" height="30" as="geometry" />
        </mxCell>
        <mxCell id="nZUH5uKoHN7z93Af-GjR-18" value="PK" style="shape=partialRectangle;connectable=0;fillColor=none;top=0;left=0;bottom=0;right=0;fontStyle=1;overflow=hidden;whiteSpace=wrap;html=1;" parent="nZUH5uKoHN7z93Af-GjR-17" vertex="1">
          <mxGeometry width="30" height="30" as="geometry">
            <mxRectangle width="30" height="30" as="alternateBounds" />
          </mxGeometry>
        </mxCell>
        <mxCell id="nZUH5uKoHN7z93Af-GjR-19" value="ID" style="shape=partialRectangle;connectable=0;fillColor=none;top=0;left=0;bottom=0;right=0;align=left;spacingLeft=6;fontStyle=5;overflow=hidden;whiteSpace=wrap;html=1;" parent="nZUH5uKoHN7z93Af-GjR-17" vertex="1">
          <mxGeometry x="30" width="99" height="30" as="geometry">
            <mxRectangle width="99" height="30" as="alternateBounds" />
          </mxGeometry>
        </mxCell>
        <mxCell id="nZUH5uKoHN7z93Af-GjR-20" value="" style="shape=tableRow;horizontal=0;startSize=0;swimlaneHead=0;swimlaneBody=0;fillColor=none;collapsible=0;dropTarget=0;points=[[0,0.5],[1,0.5]];portConstraint=eastwest;top=0;left=0;right=0;bottom=0;" parent="nZUH5uKoHN7z93Af-GjR-16" vertex="1">
          <mxGeometry y="60" width="129" height="30" as="geometry" />
        </mxCell>
        <mxCell id="nZUH5uKoHN7z93Af-GjR-21" value="" style="shape=partialRectangle;connectable=0;fillColor=none;top=0;left=0;bottom=0;right=0;editable=1;overflow=hidden;whiteSpace=wrap;html=1;" parent="nZUH5uKoHN7z93Af-GjR-20" vertex="1">
          <mxGeometry width="30" height="30" as="geometry">
            <mxRectangle width="30" height="30" as="alternateBounds" />
          </mxGeometry>
        </mxCell>
        <mxCell id="nZUH5uKoHN7z93Af-GjR-22" value="Name" style="shape=partialRectangle;connectable=0;fillColor=none;top=0;left=0;bottom=0;right=0;align=left;spacingLeft=6;overflow=hidden;whiteSpace=wrap;html=1;" parent="nZUH5uKoHN7z93Af-GjR-20" vertex="1">
          <mxGeometry x="30" width="99" height="30" as="geometry">
            <mxRectangle width="99" height="30" as="alternateBounds" />
          </mxGeometry>
        </mxCell>
        <mxCell id="nZUH5uKoHN7z93Af-GjR-23" value="" style="shape=tableRow;horizontal=0;startSize=0;swimlaneHead=0;swimlaneBody=0;fillColor=none;collapsible=0;dropTarget=0;points=[[0,0.5],[1,0.5]];portConstraint=eastwest;top=0;left=0;right=0;bottom=0;" parent="nZUH5uKoHN7z93Af-GjR-16" vertex="1">
          <mxGeometry y="90" width="129" height="30" as="geometry" />
        </mxCell>
        <mxCell id="nZUH5uKoHN7z93Af-GjR-24" value="" style="shape=partialRectangle;connectable=0;fillColor=none;top=0;left=0;bottom=0;right=0;editable=1;overflow=hidden;whiteSpace=wrap;html=1;" parent="nZUH5uKoHN7z93Af-GjR-23" vertex="1">
          <mxGeometry width="30" height="30" as="geometry">
            <mxRectangle width="30" height="30" as="alternateBounds" />
          </mxGeometry>
        </mxCell>
        <mxCell id="nZUH5uKoHN7z93Af-GjR-25" value="Address" style="shape=partialRectangle;connectable=0;fillColor=none;top=0;left=0;bottom=0;right=0;align=left;spacingLeft=6;overflow=hidden;whiteSpace=wrap;html=1;" parent="nZUH5uKoHN7z93Af-GjR-23" vertex="1">
          <mxGeometry x="30" width="99" height="30" as="geometry">
            <mxRectangle width="99" height="30" as="alternateBounds" />
          </mxGeometry>
        </mxCell>
        <mxCell id="nZUH5uKoHN7z93Af-GjR-26" value="" style="shape=tableRow;horizontal=0;startSize=0;swimlaneHead=0;swimlaneBody=0;fillColor=none;collapsible=0;dropTarget=0;points=[[0,0.5],[1,0.5]];portConstraint=eastwest;top=0;left=0;right=0;bottom=0;" parent="nZUH5uKoHN7z93Af-GjR-16" vertex="1">
          <mxGeometry y="120" width="129" height="30" as="geometry" />
        </mxCell>
        <mxCell id="nZUH5uKoHN7z93Af-GjR-27" value="" style="shape=partialRectangle;connectable=0;fillColor=none;top=0;left=0;bottom=0;right=0;editable=1;overflow=hidden;whiteSpace=wrap;html=1;" parent="nZUH5uKoHN7z93Af-GjR-26" vertex="1">
          <mxGeometry width="30" height="30" as="geometry">
            <mxRectangle width="30" height="30" as="alternateBounds" />
          </mxGeometry>
        </mxCell>
        <mxCell id="nZUH5uKoHN7z93Af-GjR-28" value="Description" style="shape=partialRectangle;connectable=0;fillColor=none;top=0;left=0;bottom=0;right=0;align=left;spacingLeft=6;overflow=hidden;whiteSpace=wrap;html=1;" parent="nZUH5uKoHN7z93Af-GjR-26" vertex="1">
          <mxGeometry x="30" width="99" height="30" as="geometry">
            <mxRectangle width="99" height="30" as="alternateBounds" />
          </mxGeometry>
        </mxCell>
        <mxCell id="nZUH5uKoHN7z93Af-GjR-29" style="shape=tableRow;horizontal=0;startSize=0;swimlaneHead=0;swimlaneBody=0;fillColor=none;collapsible=0;dropTarget=0;points=[[0,0.5],[1,0.5]];portConstraint=eastwest;top=0;left=0;right=0;bottom=0;" parent="nZUH5uKoHN7z93Af-GjR-16" vertex="1">
          <mxGeometry y="150" width="129" height="30" as="geometry" />
        </mxCell>
        <mxCell id="nZUH5uKoHN7z93Af-GjR-30" value="FK" style="shape=partialRectangle;connectable=0;fillColor=none;top=0;left=0;bottom=0;right=0;editable=1;overflow=hidden;whiteSpace=wrap;html=1;" parent="nZUH5uKoHN7z93Af-GjR-29" vertex="1">
          <mxGeometry width="30" height="30" as="geometry">
            <mxRectangle width="30" height="30" as="alternateBounds" />
          </mxGeometry>
        </mxCell>
        <mxCell id="nZUH5uKoHN7z93Af-GjR-31" value="Com_ID" style="shape=partialRectangle;connectable=0;fillColor=none;top=0;left=0;bottom=0;right=0;align=left;spacingLeft=6;overflow=hidden;whiteSpace=wrap;html=1;" parent="nZUH5uKoHN7z93Af-GjR-29" vertex="1">
          <mxGeometry x="30" width="99" height="30" as="geometry">
            <mxRectangle width="99" height="30" as="alternateBounds" />
          </mxGeometry>
        </mxCell>
        <mxCell id="nZUH5uKoHN7z93Af-GjR-32" value="Employee" style="shape=table;startSize=30;container=1;collapsible=1;childLayout=tableLayout;fixedRows=1;rowLines=0;fontStyle=1;align=center;resizeLast=1;html=1;" parent="1" vertex="1">
          <mxGeometry x="-836" y="193" width="129" height="210" as="geometry" />
        </mxCell>
        <mxCell id="nZUH5uKoHN7z93Af-GjR-33" value="" style="shape=tableRow;horizontal=0;startSize=0;swimlaneHead=0;swimlaneBody=0;fillColor=none;collapsible=0;dropTarget=0;points=[[0,0.5],[1,0.5]];portConstraint=eastwest;top=0;left=0;right=0;bottom=1;" parent="nZUH5uKoHN7z93Af-GjR-32" vertex="1">
          <mxGeometry y="30" width="129" height="30" as="geometry" />
        </mxCell>
        <mxCell id="nZUH5uKoHN7z93Af-GjR-34" value="PK" style="shape=partialRectangle;connectable=0;fillColor=none;top=0;left=0;bottom=0;right=0;fontStyle=1;overflow=hidden;whiteSpace=wrap;html=1;" parent="nZUH5uKoHN7z93Af-GjR-33" vertex="1">
          <mxGeometry width="30" height="30" as="geometry">
            <mxRectangle width="30" height="30" as="alternateBounds" />
          </mxGeometry>
        </mxCell>
        <mxCell id="nZUH5uKoHN7z93Af-GjR-35" value="ID" style="shape=partialRectangle;connectable=0;fillColor=none;top=0;left=0;bottom=0;right=0;align=left;spacingLeft=6;fontStyle=5;overflow=hidden;whiteSpace=wrap;html=1;" parent="nZUH5uKoHN7z93Af-GjR-33" vertex="1">
          <mxGeometry x="30" width="99" height="30" as="geometry">
            <mxRectangle width="99" height="30" as="alternateBounds" />
          </mxGeometry>
        </mxCell>
        <mxCell id="nZUH5uKoHN7z93Af-GjR-36" value="" style="shape=tableRow;horizontal=0;startSize=0;swimlaneHead=0;swimlaneBody=0;fillColor=none;collapsible=0;dropTarget=0;points=[[0,0.5],[1,0.5]];portConstraint=eastwest;top=0;left=0;right=0;bottom=0;" parent="nZUH5uKoHN7z93Af-GjR-32" vertex="1">
          <mxGeometry y="60" width="129" height="30" as="geometry" />
        </mxCell>
        <mxCell id="nZUH5uKoHN7z93Af-GjR-37" value="" style="shape=partialRectangle;connectable=0;fillColor=none;top=0;left=0;bottom=0;right=0;editable=1;overflow=hidden;whiteSpace=wrap;html=1;" parent="nZUH5uKoHN7z93Af-GjR-36" vertex="1">
          <mxGeometry width="30" height="30" as="geometry">
            <mxRectangle width="30" height="30" as="alternateBounds" />
          </mxGeometry>
        </mxCell>
        <mxCell id="nZUH5uKoHN7z93Af-GjR-38" value="Name" style="shape=partialRectangle;connectable=0;fillColor=none;top=0;left=0;bottom=0;right=0;align=left;spacingLeft=6;overflow=hidden;whiteSpace=wrap;html=1;" parent="nZUH5uKoHN7z93Af-GjR-36" vertex="1">
          <mxGeometry x="30" width="99" height="30" as="geometry">
            <mxRectangle width="99" height="30" as="alternateBounds" />
          </mxGeometry>
        </mxCell>
        <mxCell id="nZUH5uKoHN7z93Af-GjR-39" value="" style="shape=tableRow;horizontal=0;startSize=0;swimlaneHead=0;swimlaneBody=0;fillColor=none;collapsible=0;dropTarget=0;points=[[0,0.5],[1,0.5]];portConstraint=eastwest;top=0;left=0;right=0;bottom=0;" parent="nZUH5uKoHN7z93Af-GjR-32" vertex="1">
          <mxGeometry y="90" width="129" height="30" as="geometry" />
        </mxCell>
        <mxCell id="nZUH5uKoHN7z93Af-GjR-40" value="" style="shape=partialRectangle;connectable=0;fillColor=none;top=0;left=0;bottom=0;right=0;editable=1;overflow=hidden;whiteSpace=wrap;html=1;" parent="nZUH5uKoHN7z93Af-GjR-39" vertex="1">
          <mxGeometry width="30" height="30" as="geometry">
            <mxRectangle width="30" height="30" as="alternateBounds" />
          </mxGeometry>
        </mxCell>
        <mxCell id="nZUH5uKoHN7z93Af-GjR-41" value="PH-NO" style="shape=partialRectangle;connectable=0;fillColor=none;top=0;left=0;bottom=0;right=0;align=left;spacingLeft=6;overflow=hidden;whiteSpace=wrap;html=1;" parent="nZUH5uKoHN7z93Af-GjR-39" vertex="1">
          <mxGeometry x="30" width="99" height="30" as="geometry">
            <mxRectangle width="99" height="30" as="alternateBounds" />
          </mxGeometry>
        </mxCell>
        <mxCell id="nZUH5uKoHN7z93Af-GjR-42" value="" style="shape=tableRow;horizontal=0;startSize=0;swimlaneHead=0;swimlaneBody=0;fillColor=none;collapsible=0;dropTarget=0;points=[[0,0.5],[1,0.5]];portConstraint=eastwest;top=0;left=0;right=0;bottom=0;" parent="nZUH5uKoHN7z93Af-GjR-32" vertex="1">
          <mxGeometry y="120" width="129" height="30" as="geometry" />
        </mxCell>
        <mxCell id="nZUH5uKoHN7z93Af-GjR-43" value="" style="shape=partialRectangle;connectable=0;fillColor=none;top=0;left=0;bottom=0;right=0;editable=1;overflow=hidden;whiteSpace=wrap;html=1;" parent="nZUH5uKoHN7z93Af-GjR-42" vertex="1">
          <mxGeometry width="30" height="30" as="geometry">
            <mxRectangle width="30" height="30" as="alternateBounds" />
          </mxGeometry>
        </mxCell>
        <mxCell id="nZUH5uKoHN7z93Af-GjR-44" value="Job" style="shape=partialRectangle;connectable=0;fillColor=none;top=0;left=0;bottom=0;right=0;align=left;spacingLeft=6;overflow=hidden;whiteSpace=wrap;html=1;" parent="nZUH5uKoHN7z93Af-GjR-42" vertex="1">
          <mxGeometry x="30" width="99" height="30" as="geometry">
            <mxRectangle width="99" height="30" as="alternateBounds" />
          </mxGeometry>
        </mxCell>
        <mxCell id="nZUH5uKoHN7z93Af-GjR-48" style="shape=tableRow;horizontal=0;startSize=0;swimlaneHead=0;swimlaneBody=0;fillColor=none;collapsible=0;dropTarget=0;points=[[0,0.5],[1,0.5]];portConstraint=eastwest;top=0;left=0;right=0;bottom=0;" parent="nZUH5uKoHN7z93Af-GjR-32" vertex="1">
          <mxGeometry y="150" width="129" height="30" as="geometry" />
        </mxCell>
        <mxCell id="nZUH5uKoHN7z93Af-GjR-49" style="shape=partialRectangle;connectable=0;fillColor=none;top=0;left=0;bottom=0;right=0;editable=1;overflow=hidden;whiteSpace=wrap;html=1;" parent="nZUH5uKoHN7z93Af-GjR-48" vertex="1">
          <mxGeometry width="30" height="30" as="geometry">
            <mxRectangle width="30" height="30" as="alternateBounds" />
          </mxGeometry>
        </mxCell>
        <mxCell id="nZUH5uKoHN7z93Af-GjR-50" value="Salary" style="shape=partialRectangle;connectable=0;fillColor=none;top=0;left=0;bottom=0;right=0;align=left;spacingLeft=6;overflow=hidden;whiteSpace=wrap;html=1;" parent="nZUH5uKoHN7z93Af-GjR-48" vertex="1">
          <mxGeometry x="30" width="99" height="30" as="geometry">
            <mxRectangle width="99" height="30" as="alternateBounds" />
          </mxGeometry>
        </mxCell>
        <mxCell id="nZUH5uKoHN7z93Af-GjR-45" style="shape=tableRow;horizontal=0;startSize=0;swimlaneHead=0;swimlaneBody=0;fillColor=none;collapsible=0;dropTarget=0;points=[[0,0.5],[1,0.5]];portConstraint=eastwest;top=0;left=0;right=0;bottom=0;" parent="nZUH5uKoHN7z93Af-GjR-32" vertex="1">
          <mxGeometry y="180" width="129" height="30" as="geometry" />
        </mxCell>
        <mxCell id="nZUH5uKoHN7z93Af-GjR-46" value="FK" style="shape=partialRectangle;connectable=0;fillColor=none;top=0;left=0;bottom=0;right=0;editable=1;overflow=hidden;whiteSpace=wrap;html=1;" parent="nZUH5uKoHN7z93Af-GjR-45" vertex="1">
          <mxGeometry width="30" height="30" as="geometry">
            <mxRectangle width="30" height="30" as="alternateBounds" />
          </mxGeometry>
        </mxCell>
        <mxCell id="nZUH5uKoHN7z93Af-GjR-47" value="Agency_ID" style="shape=partialRectangle;connectable=0;fillColor=none;top=0;left=0;bottom=0;right=0;align=left;spacingLeft=6;overflow=hidden;whiteSpace=wrap;html=1;" parent="nZUH5uKoHN7z93Af-GjR-45" vertex="1">
          <mxGeometry x="30" width="99" height="30" as="geometry">
            <mxRectangle width="99" height="30" as="alternateBounds" />
          </mxGeometry>
        </mxCell>
        <mxCell id="nZUH5uKoHN7z93Af-GjR-51" value="Driver" style="shape=table;startSize=30;container=1;collapsible=1;childLayout=tableLayout;fixedRows=1;rowLines=0;fontStyle=1;align=center;resizeLast=1;html=1;" parent="1" vertex="1">
          <mxGeometry x="-580" y="221" width="129" height="210" as="geometry" />
        </mxCell>
        <mxCell id="nZUH5uKoHN7z93Af-GjR-52" value="" style="shape=tableRow;horizontal=0;startSize=0;swimlaneHead=0;swimlaneBody=0;fillColor=none;collapsible=0;dropTarget=0;points=[[0,0.5],[1,0.5]];portConstraint=eastwest;top=0;left=0;right=0;bottom=1;" parent="nZUH5uKoHN7z93Af-GjR-51" vertex="1">
          <mxGeometry y="30" width="129" height="30" as="geometry" />
        </mxCell>
        <mxCell id="nZUH5uKoHN7z93Af-GjR-53" value="PK" style="shape=partialRectangle;connectable=0;fillColor=none;top=0;left=0;bottom=0;right=0;fontStyle=1;overflow=hidden;whiteSpace=wrap;html=1;" parent="nZUH5uKoHN7z93Af-GjR-52" vertex="1">
          <mxGeometry width="30" height="30" as="geometry">
            <mxRectangle width="30" height="30" as="alternateBounds" />
          </mxGeometry>
        </mxCell>
        <mxCell id="nZUH5uKoHN7z93Af-GjR-54" value="ID" style="shape=partialRectangle;connectable=0;fillColor=none;top=0;left=0;bottom=0;right=0;align=left;spacingLeft=6;fontStyle=5;overflow=hidden;whiteSpace=wrap;html=1;" parent="nZUH5uKoHN7z93Af-GjR-52" vertex="1">
          <mxGeometry x="30" width="99" height="30" as="geometry">
            <mxRectangle width="99" height="30" as="alternateBounds" />
          </mxGeometry>
        </mxCell>
        <mxCell id="nZUH5uKoHN7z93Af-GjR-55" value="" style="shape=tableRow;horizontal=0;startSize=0;swimlaneHead=0;swimlaneBody=0;fillColor=none;collapsible=0;dropTarget=0;points=[[0,0.5],[1,0.5]];portConstraint=eastwest;top=0;left=0;right=0;bottom=0;" parent="nZUH5uKoHN7z93Af-GjR-51" vertex="1">
          <mxGeometry y="60" width="129" height="30" as="geometry" />
        </mxCell>
        <mxCell id="nZUH5uKoHN7z93Af-GjR-56" value="" style="shape=partialRectangle;connectable=0;fillColor=none;top=0;left=0;bottom=0;right=0;editable=1;overflow=hidden;whiteSpace=wrap;html=1;" parent="nZUH5uKoHN7z93Af-GjR-55" vertex="1">
          <mxGeometry width="30" height="30" as="geometry">
            <mxRectangle width="30" height="30" as="alternateBounds" />
          </mxGeometry>
        </mxCell>
        <mxCell id="nZUH5uKoHN7z93Af-GjR-57" value="Name" style="shape=partialRectangle;connectable=0;fillColor=none;top=0;left=0;bottom=0;right=0;align=left;spacingLeft=6;overflow=hidden;whiteSpace=wrap;html=1;" parent="nZUH5uKoHN7z93Af-GjR-55" vertex="1">
          <mxGeometry x="30" width="99" height="30" as="geometry">
            <mxRectangle width="99" height="30" as="alternateBounds" />
          </mxGeometry>
        </mxCell>
        <mxCell id="nZUH5uKoHN7z93Af-GjR-58" value="" style="shape=tableRow;horizontal=0;startSize=0;swimlaneHead=0;swimlaneBody=0;fillColor=none;collapsible=0;dropTarget=0;points=[[0,0.5],[1,0.5]];portConstraint=eastwest;top=0;left=0;right=0;bottom=0;" parent="nZUH5uKoHN7z93Af-GjR-51" vertex="1">
          <mxGeometry y="90" width="129" height="30" as="geometry" />
        </mxCell>
        <mxCell id="nZUH5uKoHN7z93Af-GjR-59" value="" style="shape=partialRectangle;connectable=0;fillColor=none;top=0;left=0;bottom=0;right=0;editable=1;overflow=hidden;whiteSpace=wrap;html=1;" parent="nZUH5uKoHN7z93Af-GjR-58" vertex="1">
          <mxGeometry width="30" height="30" as="geometry">
            <mxRectangle width="30" height="30" as="alternateBounds" />
          </mxGeometry>
        </mxCell>
        <mxCell id="nZUH5uKoHN7z93Af-GjR-60" value="PH-NO" style="shape=partialRectangle;connectable=0;fillColor=none;top=0;left=0;bottom=0;right=0;align=left;spacingLeft=6;overflow=hidden;whiteSpace=wrap;html=1;" parent="nZUH5uKoHN7z93Af-GjR-58" vertex="1">
          <mxGeometry x="30" width="99" height="30" as="geometry">
            <mxRectangle width="99" height="30" as="alternateBounds" />
          </mxGeometry>
        </mxCell>
        <mxCell id="nZUH5uKoHN7z93Af-GjR-61" value="" style="shape=tableRow;horizontal=0;startSize=0;swimlaneHead=0;swimlaneBody=0;fillColor=none;collapsible=0;dropTarget=0;points=[[0,0.5],[1,0.5]];portConstraint=eastwest;top=0;left=0;right=0;bottom=0;" parent="nZUH5uKoHN7z93Af-GjR-51" vertex="1">
          <mxGeometry y="120" width="129" height="30" as="geometry" />
        </mxCell>
        <mxCell id="nZUH5uKoHN7z93Af-GjR-62" value="" style="shape=partialRectangle;connectable=0;fillColor=none;top=0;left=0;bottom=0;right=0;editable=1;overflow=hidden;whiteSpace=wrap;html=1;" parent="nZUH5uKoHN7z93Af-GjR-61" vertex="1">
          <mxGeometry width="30" height="30" as="geometry">
            <mxRectangle width="30" height="30" as="alternateBounds" />
          </mxGeometry>
        </mxCell>
        <mxCell id="nZUH5uKoHN7z93Af-GjR-63" value="Address" style="shape=partialRectangle;connectable=0;fillColor=none;top=0;left=0;bottom=0;right=0;align=left;spacingLeft=6;overflow=hidden;whiteSpace=wrap;html=1;" parent="nZUH5uKoHN7z93Af-GjR-61" vertex="1">
          <mxGeometry x="30" width="99" height="30" as="geometry">
            <mxRectangle width="99" height="30" as="alternateBounds" />
          </mxGeometry>
        </mxCell>
        <mxCell id="nZUH5uKoHN7z93Af-GjR-64" style="shape=tableRow;horizontal=0;startSize=0;swimlaneHead=0;swimlaneBody=0;fillColor=none;collapsible=0;dropTarget=0;points=[[0,0.5],[1,0.5]];portConstraint=eastwest;top=0;left=0;right=0;bottom=0;" parent="nZUH5uKoHN7z93Af-GjR-51" vertex="1">
          <mxGeometry y="150" width="129" height="30" as="geometry" />
        </mxCell>
        <mxCell id="nZUH5uKoHN7z93Af-GjR-65" style="shape=partialRectangle;connectable=0;fillColor=none;top=0;left=0;bottom=0;right=0;editable=1;overflow=hidden;whiteSpace=wrap;html=1;" parent="nZUH5uKoHN7z93Af-GjR-64" vertex="1">
          <mxGeometry width="30" height="30" as="geometry">
            <mxRectangle width="30" height="30" as="alternateBounds" />
          </mxGeometry>
        </mxCell>
        <mxCell id="nZUH5uKoHN7z93Af-GjR-66" value="License-NO" style="shape=partialRectangle;connectable=0;fillColor=none;top=0;left=0;bottom=0;right=0;align=left;spacingLeft=6;overflow=hidden;whiteSpace=wrap;html=1;" parent="nZUH5uKoHN7z93Af-GjR-64" vertex="1">
          <mxGeometry x="30" width="99" height="30" as="geometry">
            <mxRectangle width="99" height="30" as="alternateBounds" />
          </mxGeometry>
        </mxCell>
        <mxCell id="nZUH5uKoHN7z93Af-GjR-67" style="shape=tableRow;horizontal=0;startSize=0;swimlaneHead=0;swimlaneBody=0;fillColor=none;collapsible=0;dropTarget=0;points=[[0,0.5],[1,0.5]];portConstraint=eastwest;top=0;left=0;right=0;bottom=0;" parent="nZUH5uKoHN7z93Af-GjR-51" vertex="1">
          <mxGeometry y="180" width="129" height="30" as="geometry" />
        </mxCell>
        <mxCell id="nZUH5uKoHN7z93Af-GjR-68" value="FK" style="shape=partialRectangle;connectable=0;fillColor=none;top=0;left=0;bottom=0;right=0;editable=1;overflow=hidden;whiteSpace=wrap;html=1;" parent="nZUH5uKoHN7z93Af-GjR-67" vertex="1">
          <mxGeometry width="30" height="30" as="geometry">
            <mxRectangle width="30" height="30" as="alternateBounds" />
          </mxGeometry>
        </mxCell>
        <mxCell id="nZUH5uKoHN7z93Af-GjR-69" value="Emp-ID" style="shape=partialRectangle;connectable=0;fillColor=none;top=0;left=0;bottom=0;right=0;align=left;spacingLeft=6;overflow=hidden;whiteSpace=wrap;html=1;" parent="nZUH5uKoHN7z93Af-GjR-67" vertex="1">
          <mxGeometry x="30" width="99" height="30" as="geometry">
            <mxRectangle width="99" height="30" as="alternateBounds" />
          </mxGeometry>
        </mxCell>
        <mxCell id="nZUH5uKoHN7z93Af-GjR-70" value="User-login" style="shape=table;startSize=30;container=1;collapsible=1;childLayout=tableLayout;fixedRows=1;rowLines=0;fontStyle=1;align=center;resizeLast=1;html=1;" parent="1" vertex="1">
          <mxGeometry x="-945" y="17" width="123" height="149" as="geometry" />
        </mxCell>
        <mxCell id="nZUH5uKoHN7z93Af-GjR-71" value="" style="shape=tableRow;horizontal=0;startSize=0;swimlaneHead=0;swimlaneBody=0;fillColor=none;collapsible=0;dropTarget=0;points=[[0,0.5],[1,0.5]];portConstraint=eastwest;top=0;left=0;right=0;bottom=1;" parent="nZUH5uKoHN7z93Af-GjR-70" vertex="1">
          <mxGeometry y="30" width="123" height="29" as="geometry" />
        </mxCell>
        <mxCell id="nZUH5uKoHN7z93Af-GjR-72" value="PK" style="shape=partialRectangle;connectable=0;fillColor=none;top=0;left=0;bottom=0;right=0;fontStyle=1;overflow=hidden;whiteSpace=wrap;html=1;" parent="nZUH5uKoHN7z93Af-GjR-71" vertex="1">
          <mxGeometry width="30" height="29" as="geometry">
            <mxRectangle width="30" height="29" as="alternateBounds" />
          </mxGeometry>
        </mxCell>
        <mxCell id="nZUH5uKoHN7z93Af-GjR-73" value="&lt;span style=&quot;font-weight: 400;&quot;&gt;User-name&lt;/span&gt;" style="shape=partialRectangle;connectable=0;fillColor=none;top=0;left=0;bottom=0;right=0;align=left;spacingLeft=6;fontStyle=5;overflow=hidden;whiteSpace=wrap;html=1;" parent="nZUH5uKoHN7z93Af-GjR-71" vertex="1">
          <mxGeometry x="30" width="93" height="29" as="geometry">
            <mxRectangle width="93" height="29" as="alternateBounds" />
          </mxGeometry>
        </mxCell>
        <mxCell id="nZUH5uKoHN7z93Af-GjR-77" value="" style="shape=tableRow;horizontal=0;startSize=0;swimlaneHead=0;swimlaneBody=0;fillColor=none;collapsible=0;dropTarget=0;points=[[0,0.5],[1,0.5]];portConstraint=eastwest;top=0;left=0;right=0;bottom=0;" parent="nZUH5uKoHN7z93Af-GjR-70" vertex="1">
          <mxGeometry y="59" width="123" height="30" as="geometry" />
        </mxCell>
        <mxCell id="nZUH5uKoHN7z93Af-GjR-78" value="" style="shape=partialRectangle;connectable=0;fillColor=none;top=0;left=0;bottom=0;right=0;editable=1;overflow=hidden;whiteSpace=wrap;html=1;" parent="nZUH5uKoHN7z93Af-GjR-77" vertex="1">
          <mxGeometry width="30" height="30" as="geometry">
            <mxRectangle width="30" height="30" as="alternateBounds" />
          </mxGeometry>
        </mxCell>
        <mxCell id="nZUH5uKoHN7z93Af-GjR-79" value="&lt;span style=&quot;text-align: center;&quot;&gt;password&lt;/span&gt;" style="shape=partialRectangle;connectable=0;fillColor=none;top=0;left=0;bottom=0;right=0;align=left;spacingLeft=6;overflow=hidden;whiteSpace=wrap;html=1;" parent="nZUH5uKoHN7z93Af-GjR-77" vertex="1">
          <mxGeometry x="30" width="93" height="30" as="geometry">
            <mxRectangle width="93" height="30" as="alternateBounds" />
          </mxGeometry>
        </mxCell>
        <mxCell id="K4GaCU7EKNPxEDtjbrX5-2" style="shape=tableRow;horizontal=0;startSize=0;swimlaneHead=0;swimlaneBody=0;fillColor=none;collapsible=0;dropTarget=0;points=[[0,0.5],[1,0.5]];portConstraint=eastwest;top=0;left=0;right=0;bottom=0;" parent="nZUH5uKoHN7z93Af-GjR-70" vertex="1">
          <mxGeometry y="89" width="123" height="30" as="geometry" />
        </mxCell>
        <mxCell id="K4GaCU7EKNPxEDtjbrX5-3" value="FK" style="shape=partialRectangle;connectable=0;fillColor=none;top=0;left=0;bottom=0;right=0;editable=1;overflow=hidden;whiteSpace=wrap;html=1;" parent="K4GaCU7EKNPxEDtjbrX5-2" vertex="1">
          <mxGeometry width="30" height="30" as="geometry">
            <mxRectangle width="30" height="30" as="alternateBounds" />
          </mxGeometry>
        </mxCell>
        <mxCell id="K4GaCU7EKNPxEDtjbrX5-4" value="&lt;span style=&quot;text-align: center;&quot;&gt;user type&lt;/span&gt;" style="shape=partialRectangle;connectable=0;fillColor=none;top=0;left=0;bottom=0;right=0;align=left;spacingLeft=6;overflow=hidden;whiteSpace=wrap;html=1;" parent="K4GaCU7EKNPxEDtjbrX5-2" vertex="1">
          <mxGeometry x="30" width="93" height="30" as="geometry">
            <mxRectangle width="93" height="30" as="alternateBounds" />
          </mxGeometry>
        </mxCell>
        <mxCell id="nZUH5uKoHN7z93Af-GjR-185" style="shape=tableRow;horizontal=0;startSize=0;swimlaneHead=0;swimlaneBody=0;fillColor=none;collapsible=0;dropTarget=0;points=[[0,0.5],[1,0.5]];portConstraint=eastwest;top=0;left=0;right=0;bottom=0;" parent="nZUH5uKoHN7z93Af-GjR-70" vertex="1">
          <mxGeometry y="119" width="123" height="30" as="geometry" />
        </mxCell>
        <mxCell id="nZUH5uKoHN7z93Af-GjR-186" value="FK" style="shape=partialRectangle;connectable=0;fillColor=none;top=0;left=0;bottom=0;right=0;editable=1;overflow=hidden;whiteSpace=wrap;html=1;" parent="nZUH5uKoHN7z93Af-GjR-185" vertex="1">
          <mxGeometry width="30" height="30" as="geometry">
            <mxRectangle width="30" height="30" as="alternateBounds" />
          </mxGeometry>
        </mxCell>
        <mxCell id="nZUH5uKoHN7z93Af-GjR-187" value="Com-ID" style="shape=partialRectangle;connectable=0;fillColor=none;top=0;left=0;bottom=0;right=0;align=left;spacingLeft=6;overflow=hidden;whiteSpace=wrap;html=1;" parent="nZUH5uKoHN7z93Af-GjR-185" vertex="1">
          <mxGeometry x="30" width="93" height="30" as="geometry">
            <mxRectangle width="93" height="30" as="alternateBounds" />
          </mxGeometry>
        </mxCell>
        <mxCell id="nZUH5uKoHN7z93Af-GjR-83" value="Bus" style="shape=table;startSize=30;container=1;collapsible=1;childLayout=tableLayout;fixedRows=1;rowLines=0;fontStyle=1;align=center;resizeLast=1;html=1;" parent="1" vertex="1">
          <mxGeometry x="-175" y="155" width="129" height="300" as="geometry" />
        </mxCell>
        <mxCell id="nZUH5uKoHN7z93Af-GjR-84" value="" style="shape=tableRow;horizontal=0;startSize=0;swimlaneHead=0;swimlaneBody=0;fillColor=none;collapsible=0;dropTarget=0;points=[[0,0.5],[1,0.5]];portConstraint=eastwest;top=0;left=0;right=0;bottom=1;" parent="nZUH5uKoHN7z93Af-GjR-83" vertex="1">
          <mxGeometry y="30" width="129" height="30" as="geometry" />
        </mxCell>
        <mxCell id="nZUH5uKoHN7z93Af-GjR-85" value="PK" style="shape=partialRectangle;connectable=0;fillColor=none;top=0;left=0;bottom=0;right=0;fontStyle=1;overflow=hidden;whiteSpace=wrap;html=1;" parent="nZUH5uKoHN7z93Af-GjR-84" vertex="1">
          <mxGeometry width="30" height="30" as="geometry">
            <mxRectangle width="30" height="30" as="alternateBounds" />
          </mxGeometry>
        </mxCell>
        <mxCell id="nZUH5uKoHN7z93Af-GjR-86" value="reg-NO" style="shape=partialRectangle;connectable=0;fillColor=none;top=0;left=0;bottom=0;right=0;align=left;spacingLeft=6;fontStyle=5;overflow=hidden;whiteSpace=wrap;html=1;" parent="nZUH5uKoHN7z93Af-GjR-84" vertex="1">
          <mxGeometry x="30" width="99" height="30" as="geometry">
            <mxRectangle width="99" height="30" as="alternateBounds" />
          </mxGeometry>
        </mxCell>
        <mxCell id="nZUH5uKoHN7z93Af-GjR-87" value="" style="shape=tableRow;horizontal=0;startSize=0;swimlaneHead=0;swimlaneBody=0;fillColor=none;collapsible=0;dropTarget=0;points=[[0,0.5],[1,0.5]];portConstraint=eastwest;top=0;left=0;right=0;bottom=0;" parent="nZUH5uKoHN7z93Af-GjR-83" vertex="1">
          <mxGeometry y="60" width="129" height="30" as="geometry" />
        </mxCell>
        <mxCell id="nZUH5uKoHN7z93Af-GjR-88" value="" style="shape=partialRectangle;connectable=0;fillColor=none;top=0;left=0;bottom=0;right=0;editable=1;overflow=hidden;whiteSpace=wrap;html=1;" parent="nZUH5uKoHN7z93Af-GjR-87" vertex="1">
          <mxGeometry width="30" height="30" as="geometry">
            <mxRectangle width="30" height="30" as="alternateBounds" />
          </mxGeometry>
        </mxCell>
        <mxCell id="nZUH5uKoHN7z93Af-GjR-89" value="Bus-Type" style="shape=partialRectangle;connectable=0;fillColor=none;top=0;left=0;bottom=0;right=0;align=left;spacingLeft=6;overflow=hidden;whiteSpace=wrap;html=1;" parent="nZUH5uKoHN7z93Af-GjR-87" vertex="1">
          <mxGeometry x="30" width="99" height="30" as="geometry">
            <mxRectangle width="99" height="30" as="alternateBounds" />
          </mxGeometry>
        </mxCell>
        <mxCell id="nZUH5uKoHN7z93Af-GjR-90" value="" style="shape=tableRow;horizontal=0;startSize=0;swimlaneHead=0;swimlaneBody=0;fillColor=none;collapsible=0;dropTarget=0;points=[[0,0.5],[1,0.5]];portConstraint=eastwest;top=0;left=0;right=0;bottom=0;" parent="nZUH5uKoHN7z93Af-GjR-83" vertex="1">
          <mxGeometry y="90" width="129" height="30" as="geometry" />
        </mxCell>
        <mxCell id="nZUH5uKoHN7z93Af-GjR-91" value="" style="shape=partialRectangle;connectable=0;fillColor=none;top=0;left=0;bottom=0;right=0;editable=1;overflow=hidden;whiteSpace=wrap;html=1;" parent="nZUH5uKoHN7z93Af-GjR-90" vertex="1">
          <mxGeometry width="30" height="30" as="geometry">
            <mxRectangle width="30" height="30" as="alternateBounds" />
          </mxGeometry>
        </mxCell>
        <mxCell id="nZUH5uKoHN7z93Af-GjR-92" value="Bus-Brand" style="shape=partialRectangle;connectable=0;fillColor=none;top=0;left=0;bottom=0;right=0;align=left;spacingLeft=6;overflow=hidden;whiteSpace=wrap;html=1;" parent="nZUH5uKoHN7z93Af-GjR-90" vertex="1">
          <mxGeometry x="30" width="99" height="30" as="geometry">
            <mxRectangle width="99" height="30" as="alternateBounds" />
          </mxGeometry>
        </mxCell>
        <mxCell id="nZUH5uKoHN7z93Af-GjR-93" value="" style="shape=tableRow;horizontal=0;startSize=0;swimlaneHead=0;swimlaneBody=0;fillColor=none;collapsible=0;dropTarget=0;points=[[0,0.5],[1,0.5]];portConstraint=eastwest;top=0;left=0;right=0;bottom=0;" parent="nZUH5uKoHN7z93Af-GjR-83" vertex="1">
          <mxGeometry y="120" width="129" height="30" as="geometry" />
        </mxCell>
        <mxCell id="nZUH5uKoHN7z93Af-GjR-94" value="" style="shape=partialRectangle;connectable=0;fillColor=none;top=0;left=0;bottom=0;right=0;editable=1;overflow=hidden;whiteSpace=wrap;html=1;" parent="nZUH5uKoHN7z93Af-GjR-93" vertex="1">
          <mxGeometry width="30" height="30" as="geometry">
            <mxRectangle width="30" height="30" as="alternateBounds" />
          </mxGeometry>
        </mxCell>
        <mxCell id="nZUH5uKoHN7z93Af-GjR-95" value="Model" style="shape=partialRectangle;connectable=0;fillColor=none;top=0;left=0;bottom=0;right=0;align=left;spacingLeft=6;overflow=hidden;whiteSpace=wrap;html=1;" parent="nZUH5uKoHN7z93Af-GjR-93" vertex="1">
          <mxGeometry x="30" width="99" height="30" as="geometry">
            <mxRectangle width="99" height="30" as="alternateBounds" />
          </mxGeometry>
        </mxCell>
        <mxCell id="nZUH5uKoHN7z93Af-GjR-96" style="shape=tableRow;horizontal=0;startSize=0;swimlaneHead=0;swimlaneBody=0;fillColor=none;collapsible=0;dropTarget=0;points=[[0,0.5],[1,0.5]];portConstraint=eastwest;top=0;left=0;right=0;bottom=0;" parent="nZUH5uKoHN7z93Af-GjR-83" vertex="1">
          <mxGeometry y="150" width="129" height="30" as="geometry" />
        </mxCell>
        <mxCell id="nZUH5uKoHN7z93Af-GjR-97" style="shape=partialRectangle;connectable=0;fillColor=none;top=0;left=0;bottom=0;right=0;editable=1;overflow=hidden;whiteSpace=wrap;html=1;" parent="nZUH5uKoHN7z93Af-GjR-96" vertex="1">
          <mxGeometry width="30" height="30" as="geometry">
            <mxRectangle width="30" height="30" as="alternateBounds" />
          </mxGeometry>
        </mxCell>
        <mxCell id="nZUH5uKoHN7z93Af-GjR-98" value="Total-No" style="shape=partialRectangle;connectable=0;fillColor=none;top=0;left=0;bottom=0;right=0;align=left;spacingLeft=6;overflow=hidden;whiteSpace=wrap;html=1;" parent="nZUH5uKoHN7z93Af-GjR-96" vertex="1">
          <mxGeometry x="30" width="99" height="30" as="geometry">
            <mxRectangle width="99" height="30" as="alternateBounds" />
          </mxGeometry>
        </mxCell>
        <mxCell id="nZUH5uKoHN7z93Af-GjR-105" style="shape=tableRow;horizontal=0;startSize=0;swimlaneHead=0;swimlaneBody=0;fillColor=none;collapsible=0;dropTarget=0;points=[[0,0.5],[1,0.5]];portConstraint=eastwest;top=0;left=0;right=0;bottom=0;" parent="nZUH5uKoHN7z93Af-GjR-83" vertex="1">
          <mxGeometry y="180" width="129" height="30" as="geometry" />
        </mxCell>
        <mxCell id="nZUH5uKoHN7z93Af-GjR-106" style="shape=partialRectangle;connectable=0;fillColor=none;top=0;left=0;bottom=0;right=0;editable=1;overflow=hidden;whiteSpace=wrap;html=1;" parent="nZUH5uKoHN7z93Af-GjR-105" vertex="1">
          <mxGeometry width="30" height="30" as="geometry">
            <mxRectangle width="30" height="30" as="alternateBounds" />
          </mxGeometry>
        </mxCell>
        <mxCell id="nZUH5uKoHN7z93Af-GjR-107" value="Bus-Rotation" style="shape=partialRectangle;connectable=0;fillColor=none;top=0;left=0;bottom=0;right=0;align=left;spacingLeft=6;overflow=hidden;whiteSpace=wrap;html=1;" parent="nZUH5uKoHN7z93Af-GjR-105" vertex="1">
          <mxGeometry x="30" width="99" height="30" as="geometry">
            <mxRectangle width="99" height="30" as="alternateBounds" />
          </mxGeometry>
        </mxCell>
        <mxCell id="nZUH5uKoHN7z93Af-GjR-102" style="shape=tableRow;horizontal=0;startSize=0;swimlaneHead=0;swimlaneBody=0;fillColor=none;collapsible=0;dropTarget=0;points=[[0,0.5],[1,0.5]];portConstraint=eastwest;top=0;left=0;right=0;bottom=0;" parent="nZUH5uKoHN7z93Af-GjR-83" vertex="1">
          <mxGeometry y="210" width="129" height="30" as="geometry" />
        </mxCell>
        <mxCell id="nZUH5uKoHN7z93Af-GjR-103" style="shape=partialRectangle;connectable=0;fillColor=none;top=0;left=0;bottom=0;right=0;editable=1;overflow=hidden;whiteSpace=wrap;html=1;" parent="nZUH5uKoHN7z93Af-GjR-102" vertex="1">
          <mxGeometry width="30" height="30" as="geometry">
            <mxRectangle width="30" height="30" as="alternateBounds" />
          </mxGeometry>
        </mxCell>
        <mxCell id="nZUH5uKoHN7z93Af-GjR-104" value="Owner" style="shape=partialRectangle;connectable=0;fillColor=none;top=0;left=0;bottom=0;right=0;align=left;spacingLeft=6;overflow=hidden;whiteSpace=wrap;html=1;" parent="nZUH5uKoHN7z93Af-GjR-102" vertex="1">
          <mxGeometry x="30" width="99" height="30" as="geometry">
            <mxRectangle width="99" height="30" as="alternateBounds" />
          </mxGeometry>
        </mxCell>
        <mxCell id="nZUH5uKoHN7z93Af-GjR-195" style="shape=tableRow;horizontal=0;startSize=0;swimlaneHead=0;swimlaneBody=0;fillColor=none;collapsible=0;dropTarget=0;points=[[0,0.5],[1,0.5]];portConstraint=eastwest;top=0;left=0;right=0;bottom=0;" parent="nZUH5uKoHN7z93Af-GjR-83" vertex="1">
          <mxGeometry y="240" width="129" height="30" as="geometry" />
        </mxCell>
        <mxCell id="nZUH5uKoHN7z93Af-GjR-196" value="FK" style="shape=partialRectangle;connectable=0;fillColor=none;top=0;left=0;bottom=0;right=0;editable=1;overflow=hidden;whiteSpace=wrap;html=1;" parent="nZUH5uKoHN7z93Af-GjR-195" vertex="1">
          <mxGeometry width="30" height="30" as="geometry">
            <mxRectangle width="30" height="30" as="alternateBounds" />
          </mxGeometry>
        </mxCell>
        <mxCell id="nZUH5uKoHN7z93Af-GjR-197" value="Driver-ID" style="shape=partialRectangle;connectable=0;fillColor=none;top=0;left=0;bottom=0;right=0;align=left;spacingLeft=6;overflow=hidden;whiteSpace=wrap;html=1;" parent="nZUH5uKoHN7z93Af-GjR-195" vertex="1">
          <mxGeometry x="30" width="99" height="30" as="geometry">
            <mxRectangle width="99" height="30" as="alternateBounds" />
          </mxGeometry>
        </mxCell>
        <mxCell id="nZUH5uKoHN7z93Af-GjR-99" style="shape=tableRow;horizontal=0;startSize=0;swimlaneHead=0;swimlaneBody=0;fillColor=none;collapsible=0;dropTarget=0;points=[[0,0.5],[1,0.5]];portConstraint=eastwest;top=0;left=0;right=0;bottom=0;" parent="nZUH5uKoHN7z93Af-GjR-83" vertex="1">
          <mxGeometry y="270" width="129" height="30" as="geometry" />
        </mxCell>
        <mxCell id="nZUH5uKoHN7z93Af-GjR-100" value="FK" style="shape=partialRectangle;connectable=0;fillColor=none;top=0;left=0;bottom=0;right=0;editable=1;overflow=hidden;whiteSpace=wrap;html=1;" parent="nZUH5uKoHN7z93Af-GjR-99" vertex="1">
          <mxGeometry width="30" height="30" as="geometry">
            <mxRectangle width="30" height="30" as="alternateBounds" />
          </mxGeometry>
        </mxCell>
        <mxCell id="nZUH5uKoHN7z93Af-GjR-101" value="Agency-ID" style="shape=partialRectangle;connectable=0;fillColor=none;top=0;left=0;bottom=0;right=0;align=left;spacingLeft=6;overflow=hidden;whiteSpace=wrap;html=1;" parent="nZUH5uKoHN7z93Af-GjR-99" vertex="1">
          <mxGeometry x="30" width="99" height="30" as="geometry">
            <mxRectangle width="99" height="30" as="alternateBounds" />
          </mxGeometry>
        </mxCell>
        <mxCell id="nZUH5uKoHN7z93Af-GjR-108" value="Ticket" style="shape=table;startSize=30;container=1;collapsible=1;childLayout=tableLayout;fixedRows=1;rowLines=0;fontStyle=1;align=center;resizeLast=1;html=1;" parent="1" vertex="1">
          <mxGeometry x="-811" y="473" width="129" height="355" as="geometry" />
        </mxCell>
        <mxCell id="nZUH5uKoHN7z93Af-GjR-109" value="" style="shape=tableRow;horizontal=0;startSize=0;swimlaneHead=0;swimlaneBody=0;fillColor=none;collapsible=0;dropTarget=0;points=[[0,0.5],[1,0.5]];portConstraint=eastwest;top=0;left=0;right=0;bottom=1;" parent="nZUH5uKoHN7z93Af-GjR-108" vertex="1">
          <mxGeometry y="30" width="129" height="25" as="geometry" />
        </mxCell>
        <mxCell id="nZUH5uKoHN7z93Af-GjR-110" value="PK" style="shape=partialRectangle;connectable=0;fillColor=none;top=0;left=0;bottom=0;right=0;fontStyle=1;overflow=hidden;whiteSpace=wrap;html=1;" parent="nZUH5uKoHN7z93Af-GjR-109" vertex="1">
          <mxGeometry width="30" height="25" as="geometry">
            <mxRectangle width="30" height="25" as="alternateBounds" />
          </mxGeometry>
        </mxCell>
        <mxCell id="nZUH5uKoHN7z93Af-GjR-111" value="ID" style="shape=partialRectangle;connectable=0;fillColor=none;top=0;left=0;bottom=0;right=0;align=left;spacingLeft=6;fontStyle=5;overflow=hidden;whiteSpace=wrap;html=1;" parent="nZUH5uKoHN7z93Af-GjR-109" vertex="1">
          <mxGeometry x="30" width="99" height="25" as="geometry">
            <mxRectangle width="99" height="25" as="alternateBounds" />
          </mxGeometry>
        </mxCell>
        <mxCell id="nZUH5uKoHN7z93Af-GjR-112" value="" style="shape=tableRow;horizontal=0;startSize=0;swimlaneHead=0;swimlaneBody=0;fillColor=none;collapsible=0;dropTarget=0;points=[[0,0.5],[1,0.5]];portConstraint=eastwest;top=0;left=0;right=0;bottom=0;" parent="nZUH5uKoHN7z93Af-GjR-108" vertex="1">
          <mxGeometry y="55" width="129" height="30" as="geometry" />
        </mxCell>
        <mxCell id="nZUH5uKoHN7z93Af-GjR-113" value="FK" style="shape=partialRectangle;connectable=0;fillColor=none;top=0;left=0;bottom=0;right=0;editable=1;overflow=hidden;whiteSpace=wrap;html=1;" parent="nZUH5uKoHN7z93Af-GjR-112" vertex="1">
          <mxGeometry width="30" height="30" as="geometry">
            <mxRectangle width="30" height="30" as="alternateBounds" />
          </mxGeometry>
        </mxCell>
        <mxCell id="nZUH5uKoHN7z93Af-GjR-114" value="Type" style="shape=partialRectangle;connectable=0;fillColor=none;top=0;left=0;bottom=0;right=0;align=left;spacingLeft=6;overflow=hidden;whiteSpace=wrap;html=1;" parent="nZUH5uKoHN7z93Af-GjR-112" vertex="1">
          <mxGeometry x="30" width="99" height="30" as="geometry">
            <mxRectangle width="99" height="30" as="alternateBounds" />
          </mxGeometry>
        </mxCell>
        <mxCell id="nZUH5uKoHN7z93Af-GjR-115" value="" style="shape=tableRow;horizontal=0;startSize=0;swimlaneHead=0;swimlaneBody=0;fillColor=none;collapsible=0;dropTarget=0;points=[[0,0.5],[1,0.5]];portConstraint=eastwest;top=0;left=0;right=0;bottom=0;" parent="nZUH5uKoHN7z93Af-GjR-108" vertex="1">
          <mxGeometry y="85" width="129" height="30" as="geometry" />
        </mxCell>
        <mxCell id="nZUH5uKoHN7z93Af-GjR-116" value="" style="shape=partialRectangle;connectable=0;fillColor=none;top=0;left=0;bottom=0;right=0;editable=1;overflow=hidden;whiteSpace=wrap;html=1;" parent="nZUH5uKoHN7z93Af-GjR-115" vertex="1">
          <mxGeometry width="30" height="30" as="geometry">
            <mxRectangle width="30" height="30" as="alternateBounds" />
          </mxGeometry>
        </mxCell>
        <mxCell id="nZUH5uKoHN7z93Af-GjR-117" value="Date" style="shape=partialRectangle;connectable=0;fillColor=none;top=0;left=0;bottom=0;right=0;align=left;spacingLeft=6;overflow=hidden;whiteSpace=wrap;html=1;" parent="nZUH5uKoHN7z93Af-GjR-115" vertex="1">
          <mxGeometry x="30" width="99" height="30" as="geometry">
            <mxRectangle width="99" height="30" as="alternateBounds" />
          </mxGeometry>
        </mxCell>
        <mxCell id="nZUH5uKoHN7z93Af-GjR-118" value="" style="shape=tableRow;horizontal=0;startSize=0;swimlaneHead=0;swimlaneBody=0;fillColor=none;collapsible=0;dropTarget=0;points=[[0,0.5],[1,0.5]];portConstraint=eastwest;top=0;left=0;right=0;bottom=0;" parent="nZUH5uKoHN7z93Af-GjR-108" vertex="1">
          <mxGeometry y="115" width="129" height="30" as="geometry" />
        </mxCell>
        <mxCell id="nZUH5uKoHN7z93Af-GjR-119" value="" style="shape=partialRectangle;connectable=0;fillColor=none;top=0;left=0;bottom=0;right=0;editable=1;overflow=hidden;whiteSpace=wrap;html=1;" parent="nZUH5uKoHN7z93Af-GjR-118" vertex="1">
          <mxGeometry width="30" height="30" as="geometry">
            <mxRectangle width="30" height="30" as="alternateBounds" />
          </mxGeometry>
        </mxCell>
        <mxCell id="nZUH5uKoHN7z93Af-GjR-120" value="From" style="shape=partialRectangle;connectable=0;fillColor=none;top=0;left=0;bottom=0;right=0;align=left;spacingLeft=6;overflow=hidden;whiteSpace=wrap;html=1;" parent="nZUH5uKoHN7z93Af-GjR-118" vertex="1">
          <mxGeometry x="30" width="99" height="30" as="geometry">
            <mxRectangle width="99" height="30" as="alternateBounds" />
          </mxGeometry>
        </mxCell>
        <mxCell id="nZUH5uKoHN7z93Af-GjR-121" style="shape=tableRow;horizontal=0;startSize=0;swimlaneHead=0;swimlaneBody=0;fillColor=none;collapsible=0;dropTarget=0;points=[[0,0.5],[1,0.5]];portConstraint=eastwest;top=0;left=0;right=0;bottom=0;" parent="nZUH5uKoHN7z93Af-GjR-108" vertex="1">
          <mxGeometry y="145" width="129" height="30" as="geometry" />
        </mxCell>
        <mxCell id="nZUH5uKoHN7z93Af-GjR-122" style="shape=partialRectangle;connectable=0;fillColor=none;top=0;left=0;bottom=0;right=0;editable=1;overflow=hidden;whiteSpace=wrap;html=1;" parent="nZUH5uKoHN7z93Af-GjR-121" vertex="1">
          <mxGeometry width="30" height="30" as="geometry">
            <mxRectangle width="30" height="30" as="alternateBounds" />
          </mxGeometry>
        </mxCell>
        <mxCell id="nZUH5uKoHN7z93Af-GjR-123" value="To" style="shape=partialRectangle;connectable=0;fillColor=none;top=0;left=0;bottom=0;right=0;align=left;spacingLeft=6;overflow=hidden;whiteSpace=wrap;html=1;" parent="nZUH5uKoHN7z93Af-GjR-121" vertex="1">
          <mxGeometry x="30" width="99" height="30" as="geometry">
            <mxRectangle width="99" height="30" as="alternateBounds" />
          </mxGeometry>
        </mxCell>
        <mxCell id="nZUH5uKoHN7z93Af-GjR-124" style="shape=tableRow;horizontal=0;startSize=0;swimlaneHead=0;swimlaneBody=0;fillColor=none;collapsible=0;dropTarget=0;points=[[0,0.5],[1,0.5]];portConstraint=eastwest;top=0;left=0;right=0;bottom=0;" parent="nZUH5uKoHN7z93Af-GjR-108" vertex="1">
          <mxGeometry y="175" width="129" height="30" as="geometry" />
        </mxCell>
        <mxCell id="nZUH5uKoHN7z93Af-GjR-125" value="FK" style="shape=partialRectangle;connectable=0;fillColor=none;top=0;left=0;bottom=0;right=0;editable=1;overflow=hidden;whiteSpace=wrap;html=1;" parent="nZUH5uKoHN7z93Af-GjR-124" vertex="1">
          <mxGeometry width="30" height="30" as="geometry">
            <mxRectangle width="30" height="30" as="alternateBounds" />
          </mxGeometry>
        </mxCell>
        <mxCell id="nZUH5uKoHN7z93Af-GjR-126" value="Bus-No" style="shape=partialRectangle;connectable=0;fillColor=none;top=0;left=0;bottom=0;right=0;align=left;spacingLeft=6;overflow=hidden;whiteSpace=wrap;html=1;" parent="nZUH5uKoHN7z93Af-GjR-124" vertex="1">
          <mxGeometry x="30" width="99" height="30" as="geometry">
            <mxRectangle width="99" height="30" as="alternateBounds" />
          </mxGeometry>
        </mxCell>
        <mxCell id="nZUH5uKoHN7z93Af-GjR-127" style="shape=tableRow;horizontal=0;startSize=0;swimlaneHead=0;swimlaneBody=0;fillColor=none;collapsible=0;dropTarget=0;points=[[0,0.5],[1,0.5]];portConstraint=eastwest;top=0;left=0;right=0;bottom=0;" parent="nZUH5uKoHN7z93Af-GjR-108" vertex="1">
          <mxGeometry y="205" width="129" height="30" as="geometry" />
        </mxCell>
        <mxCell id="nZUH5uKoHN7z93Af-GjR-128" style="shape=partialRectangle;connectable=0;fillColor=none;top=0;left=0;bottom=0;right=0;editable=1;overflow=hidden;whiteSpace=wrap;html=1;" parent="nZUH5uKoHN7z93Af-GjR-127" vertex="1">
          <mxGeometry width="30" height="30" as="geometry">
            <mxRectangle width="30" height="30" as="alternateBounds" />
          </mxGeometry>
        </mxCell>
        <mxCell id="nZUH5uKoHN7z93Af-GjR-129" value="Seat-No" style="shape=partialRectangle;connectable=0;fillColor=none;top=0;left=0;bottom=0;right=0;align=left;spacingLeft=6;overflow=hidden;whiteSpace=wrap;html=1;" parent="nZUH5uKoHN7z93Af-GjR-127" vertex="1">
          <mxGeometry x="30" width="99" height="30" as="geometry">
            <mxRectangle width="99" height="30" as="alternateBounds" />
          </mxGeometry>
        </mxCell>
        <mxCell id="nZUH5uKoHN7z93Af-GjR-133" style="shape=tableRow;horizontal=0;startSize=0;swimlaneHead=0;swimlaneBody=0;fillColor=none;collapsible=0;dropTarget=0;points=[[0,0.5],[1,0.5]];portConstraint=eastwest;top=0;left=0;right=0;bottom=0;" parent="nZUH5uKoHN7z93Af-GjR-108" vertex="1">
          <mxGeometry y="235" width="129" height="30" as="geometry" />
        </mxCell>
        <mxCell id="nZUH5uKoHN7z93Af-GjR-134" value="FK" style="shape=partialRectangle;connectable=0;fillColor=none;top=0;left=0;bottom=0;right=0;editable=1;overflow=hidden;whiteSpace=wrap;html=1;" parent="nZUH5uKoHN7z93Af-GjR-133" vertex="1">
          <mxGeometry width="30" height="30" as="geometry">
            <mxRectangle width="30" height="30" as="alternateBounds" />
          </mxGeometry>
        </mxCell>
        <mxCell id="nZUH5uKoHN7z93Af-GjR-135" value="Status" style="shape=partialRectangle;connectable=0;fillColor=none;top=0;left=0;bottom=0;right=0;align=left;spacingLeft=6;overflow=hidden;whiteSpace=wrap;html=1;" parent="nZUH5uKoHN7z93Af-GjR-133" vertex="1">
          <mxGeometry x="30" width="99" height="30" as="geometry">
            <mxRectangle width="99" height="30" as="alternateBounds" />
          </mxGeometry>
        </mxCell>
        <mxCell id="nZUH5uKoHN7z93Af-GjR-136" style="shape=tableRow;horizontal=0;startSize=0;swimlaneHead=0;swimlaneBody=0;fillColor=none;collapsible=0;dropTarget=0;points=[[0,0.5],[1,0.5]];portConstraint=eastwest;top=0;left=0;right=0;bottom=0;" parent="nZUH5uKoHN7z93Af-GjR-108" vertex="1">
          <mxGeometry y="265" width="129" height="30" as="geometry" />
        </mxCell>
        <mxCell id="nZUH5uKoHN7z93Af-GjR-137" style="shape=partialRectangle;connectable=0;fillColor=none;top=0;left=0;bottom=0;right=0;editable=1;overflow=hidden;whiteSpace=wrap;html=1;" parent="nZUH5uKoHN7z93Af-GjR-136" vertex="1">
          <mxGeometry width="30" height="30" as="geometry">
            <mxRectangle width="30" height="30" as="alternateBounds" />
          </mxGeometry>
        </mxCell>
        <mxCell id="nZUH5uKoHN7z93Af-GjR-138" value="Price" style="shape=partialRectangle;connectable=0;fillColor=none;top=0;left=0;bottom=0;right=0;align=left;spacingLeft=6;overflow=hidden;whiteSpace=wrap;html=1;" parent="nZUH5uKoHN7z93Af-GjR-136" vertex="1">
          <mxGeometry x="30" width="99" height="30" as="geometry">
            <mxRectangle width="99" height="30" as="alternateBounds" />
          </mxGeometry>
        </mxCell>
        <mxCell id="nZUH5uKoHN7z93Af-GjR-130" style="shape=tableRow;horizontal=0;startSize=0;swimlaneHead=0;swimlaneBody=0;fillColor=none;collapsible=0;dropTarget=0;points=[[0,0.5],[1,0.5]];portConstraint=eastwest;top=0;left=0;right=0;bottom=0;" parent="nZUH5uKoHN7z93Af-GjR-108" vertex="1">
          <mxGeometry y="295" width="129" height="30" as="geometry" />
        </mxCell>
        <mxCell id="nZUH5uKoHN7z93Af-GjR-131" value="FK" style="shape=partialRectangle;connectable=0;fillColor=none;top=0;left=0;bottom=0;right=0;editable=1;overflow=hidden;whiteSpace=wrap;html=1;" parent="nZUH5uKoHN7z93Af-GjR-130" vertex="1">
          <mxGeometry width="30" height="30" as="geometry">
            <mxRectangle width="30" height="30" as="alternateBounds" />
          </mxGeometry>
        </mxCell>
        <mxCell id="nZUH5uKoHN7z93Af-GjR-132" value="Passenger-ID" style="shape=partialRectangle;connectable=0;fillColor=none;top=0;left=0;bottom=0;right=0;align=left;spacingLeft=6;overflow=hidden;whiteSpace=wrap;html=1;" parent="nZUH5uKoHN7z93Af-GjR-130" vertex="1">
          <mxGeometry x="30" width="99" height="30" as="geometry">
            <mxRectangle width="99" height="30" as="alternateBounds" />
          </mxGeometry>
        </mxCell>
        <mxCell id="nZUH5uKoHN7z93Af-GjR-175" style="shape=tableRow;horizontal=0;startSize=0;swimlaneHead=0;swimlaneBody=0;fillColor=none;collapsible=0;dropTarget=0;points=[[0,0.5],[1,0.5]];portConstraint=eastwest;top=0;left=0;right=0;bottom=0;" parent="nZUH5uKoHN7z93Af-GjR-108" vertex="1">
          <mxGeometry y="325" width="129" height="30" as="geometry" />
        </mxCell>
        <mxCell id="nZUH5uKoHN7z93Af-GjR-176" value="FK" style="shape=partialRectangle;connectable=0;fillColor=none;top=0;left=0;bottom=0;right=0;editable=1;overflow=hidden;whiteSpace=wrap;html=1;" parent="nZUH5uKoHN7z93Af-GjR-175" vertex="1">
          <mxGeometry width="30" height="30" as="geometry">
            <mxRectangle width="30" height="30" as="alternateBounds" />
          </mxGeometry>
        </mxCell>
        <mxCell id="nZUH5uKoHN7z93Af-GjR-177" value="Emp-ID" style="shape=partialRectangle;connectable=0;fillColor=none;top=0;left=0;bottom=0;right=0;align=left;spacingLeft=6;overflow=hidden;whiteSpace=wrap;html=1;" parent="nZUH5uKoHN7z93Af-GjR-175" vertex="1">
          <mxGeometry x="30" width="99" height="30" as="geometry">
            <mxRectangle width="99" height="30" as="alternateBounds" />
          </mxGeometry>
        </mxCell>
        <mxCell id="nZUH5uKoHN7z93Af-GjR-139" value="Passenger" style="shape=table;startSize=30;container=1;collapsible=1;childLayout=tableLayout;fixedRows=1;rowLines=0;fontStyle=1;align=center;resizeLast=1;html=1;" parent="1" vertex="1">
          <mxGeometry x="-486" y="585" width="129" height="150" as="geometry" />
        </mxCell>
        <mxCell id="nZUH5uKoHN7z93Af-GjR-140" value="" style="shape=tableRow;horizontal=0;startSize=0;swimlaneHead=0;swimlaneBody=0;fillColor=none;collapsible=0;dropTarget=0;points=[[0,0.5],[1,0.5]];portConstraint=eastwest;top=0;left=0;right=0;bottom=1;" parent="nZUH5uKoHN7z93Af-GjR-139" vertex="1">
          <mxGeometry y="30" width="129" height="30" as="geometry" />
        </mxCell>
        <mxCell id="nZUH5uKoHN7z93Af-GjR-141" value="PK" style="shape=partialRectangle;connectable=0;fillColor=none;top=0;left=0;bottom=0;right=0;fontStyle=1;overflow=hidden;whiteSpace=wrap;html=1;" parent="nZUH5uKoHN7z93Af-GjR-140" vertex="1">
          <mxGeometry width="30" height="30" as="geometry">
            <mxRectangle width="30" height="30" as="alternateBounds" />
          </mxGeometry>
        </mxCell>
        <mxCell id="nZUH5uKoHN7z93Af-GjR-142" value="ID" style="shape=partialRectangle;connectable=0;fillColor=none;top=0;left=0;bottom=0;right=0;align=left;spacingLeft=6;fontStyle=5;overflow=hidden;whiteSpace=wrap;html=1;" parent="nZUH5uKoHN7z93Af-GjR-140" vertex="1">
          <mxGeometry x="30" width="99" height="30" as="geometry">
            <mxRectangle width="99" height="30" as="alternateBounds" />
          </mxGeometry>
        </mxCell>
        <mxCell id="nZUH5uKoHN7z93Af-GjR-143" value="" style="shape=tableRow;horizontal=0;startSize=0;swimlaneHead=0;swimlaneBody=0;fillColor=none;collapsible=0;dropTarget=0;points=[[0,0.5],[1,0.5]];portConstraint=eastwest;top=0;left=0;right=0;bottom=0;" parent="nZUH5uKoHN7z93Af-GjR-139" vertex="1">
          <mxGeometry y="60" width="129" height="30" as="geometry" />
        </mxCell>
        <mxCell id="nZUH5uKoHN7z93Af-GjR-144" value="" style="shape=partialRectangle;connectable=0;fillColor=none;top=0;left=0;bottom=0;right=0;editable=1;overflow=hidden;whiteSpace=wrap;html=1;" parent="nZUH5uKoHN7z93Af-GjR-143" vertex="1">
          <mxGeometry width="30" height="30" as="geometry">
            <mxRectangle width="30" height="30" as="alternateBounds" />
          </mxGeometry>
        </mxCell>
        <mxCell id="nZUH5uKoHN7z93Af-GjR-145" value="Name" style="shape=partialRectangle;connectable=0;fillColor=none;top=0;left=0;bottom=0;right=0;align=left;spacingLeft=6;overflow=hidden;whiteSpace=wrap;html=1;" parent="nZUH5uKoHN7z93Af-GjR-143" vertex="1">
          <mxGeometry x="30" width="99" height="30" as="geometry">
            <mxRectangle width="99" height="30" as="alternateBounds" />
          </mxGeometry>
        </mxCell>
        <mxCell id="nZUH5uKoHN7z93Af-GjR-146" value="" style="shape=tableRow;horizontal=0;startSize=0;swimlaneHead=0;swimlaneBody=0;fillColor=none;collapsible=0;dropTarget=0;points=[[0,0.5],[1,0.5]];portConstraint=eastwest;top=0;left=0;right=0;bottom=0;" parent="nZUH5uKoHN7z93Af-GjR-139" vertex="1">
          <mxGeometry y="90" width="129" height="30" as="geometry" />
        </mxCell>
        <mxCell id="nZUH5uKoHN7z93Af-GjR-147" value="" style="shape=partialRectangle;connectable=0;fillColor=none;top=0;left=0;bottom=0;right=0;editable=1;overflow=hidden;whiteSpace=wrap;html=1;" parent="nZUH5uKoHN7z93Af-GjR-146" vertex="1">
          <mxGeometry width="30" height="30" as="geometry">
            <mxRectangle width="30" height="30" as="alternateBounds" />
          </mxGeometry>
        </mxCell>
        <mxCell id="nZUH5uKoHN7z93Af-GjR-148" value="PH-NO" style="shape=partialRectangle;connectable=0;fillColor=none;top=0;left=0;bottom=0;right=0;align=left;spacingLeft=6;overflow=hidden;whiteSpace=wrap;html=1;" parent="nZUH5uKoHN7z93Af-GjR-146" vertex="1">
          <mxGeometry x="30" width="99" height="30" as="geometry">
            <mxRectangle width="99" height="30" as="alternateBounds" />
          </mxGeometry>
        </mxCell>
        <mxCell id="nZUH5uKoHN7z93Af-GjR-149" value="" style="shape=tableRow;horizontal=0;startSize=0;swimlaneHead=0;swimlaneBody=0;fillColor=none;collapsible=0;dropTarget=0;points=[[0,0.5],[1,0.5]];portConstraint=eastwest;top=0;left=0;right=0;bottom=0;" parent="nZUH5uKoHN7z93Af-GjR-139" vertex="1">
          <mxGeometry y="120" width="129" height="30" as="geometry" />
        </mxCell>
        <mxCell id="nZUH5uKoHN7z93Af-GjR-150" value="" style="shape=partialRectangle;connectable=0;fillColor=none;top=0;left=0;bottom=0;right=0;editable=1;overflow=hidden;whiteSpace=wrap;html=1;" parent="nZUH5uKoHN7z93Af-GjR-149" vertex="1">
          <mxGeometry width="30" height="30" as="geometry">
            <mxRectangle width="30" height="30" as="alternateBounds" />
          </mxGeometry>
        </mxCell>
        <mxCell id="nZUH5uKoHN7z93Af-GjR-151" value="No-Of-Ticket" style="shape=partialRectangle;connectable=0;fillColor=none;top=0;left=0;bottom=0;right=0;align=left;spacingLeft=6;overflow=hidden;whiteSpace=wrap;html=1;" parent="nZUH5uKoHN7z93Af-GjR-149" vertex="1">
          <mxGeometry x="30" width="99" height="30" as="geometry">
            <mxRectangle width="99" height="30" as="alternateBounds" />
          </mxGeometry>
        </mxCell>
        <mxCell id="nZUH5uKoHN7z93Af-GjR-158" value="Goods" style="shape=table;startSize=30;container=1;collapsible=1;childLayout=tableLayout;fixedRows=1;rowLines=0;fontStyle=1;align=center;resizeLast=1;html=1;" parent="1" vertex="1">
          <mxGeometry x="-175" y="583" width="129" height="180" as="geometry" />
        </mxCell>
        <mxCell id="nZUH5uKoHN7z93Af-GjR-159" value="" style="shape=tableRow;horizontal=0;startSize=0;swimlaneHead=0;swimlaneBody=0;fillColor=none;collapsible=0;dropTarget=0;points=[[0,0.5],[1,0.5]];portConstraint=eastwest;top=0;left=0;right=0;bottom=1;" parent="nZUH5uKoHN7z93Af-GjR-158" vertex="1">
          <mxGeometry y="30" width="129" height="30" as="geometry" />
        </mxCell>
        <mxCell id="nZUH5uKoHN7z93Af-GjR-160" value="PK" style="shape=partialRectangle;connectable=0;fillColor=none;top=0;left=0;bottom=0;right=0;fontStyle=1;overflow=hidden;whiteSpace=wrap;html=1;" parent="nZUH5uKoHN7z93Af-GjR-159" vertex="1">
          <mxGeometry width="30" height="30" as="geometry">
            <mxRectangle width="30" height="30" as="alternateBounds" />
          </mxGeometry>
        </mxCell>
        <mxCell id="nZUH5uKoHN7z93Af-GjR-161" value="ID" style="shape=partialRectangle;connectable=0;fillColor=none;top=0;left=0;bottom=0;right=0;align=left;spacingLeft=6;fontStyle=5;overflow=hidden;whiteSpace=wrap;html=1;" parent="nZUH5uKoHN7z93Af-GjR-159" vertex="1">
          <mxGeometry x="30" width="99" height="30" as="geometry">
            <mxRectangle width="99" height="30" as="alternateBounds" />
          </mxGeometry>
        </mxCell>
        <mxCell id="nZUH5uKoHN7z93Af-GjR-162" value="" style="shape=tableRow;horizontal=0;startSize=0;swimlaneHead=0;swimlaneBody=0;fillColor=none;collapsible=0;dropTarget=0;points=[[0,0.5],[1,0.5]];portConstraint=eastwest;top=0;left=0;right=0;bottom=0;" parent="nZUH5uKoHN7z93Af-GjR-158" vertex="1">
          <mxGeometry y="60" width="129" height="30" as="geometry" />
        </mxCell>
        <mxCell id="nZUH5uKoHN7z93Af-GjR-163" value="" style="shape=partialRectangle;connectable=0;fillColor=none;top=0;left=0;bottom=0;right=0;editable=1;overflow=hidden;whiteSpace=wrap;html=1;" parent="nZUH5uKoHN7z93Af-GjR-162" vertex="1">
          <mxGeometry width="30" height="30" as="geometry">
            <mxRectangle width="30" height="30" as="alternateBounds" />
          </mxGeometry>
        </mxCell>
        <mxCell id="nZUH5uKoHN7z93Af-GjR-164" value="Rent" style="shape=partialRectangle;connectable=0;fillColor=none;top=0;left=0;bottom=0;right=0;align=left;spacingLeft=6;overflow=hidden;whiteSpace=wrap;html=1;" parent="nZUH5uKoHN7z93Af-GjR-162" vertex="1">
          <mxGeometry x="30" width="99" height="30" as="geometry">
            <mxRectangle width="99" height="30" as="alternateBounds" />
          </mxGeometry>
        </mxCell>
        <mxCell id="nZUH5uKoHN7z93Af-GjR-165" value="" style="shape=tableRow;horizontal=0;startSize=0;swimlaneHead=0;swimlaneBody=0;fillColor=none;collapsible=0;dropTarget=0;points=[[0,0.5],[1,0.5]];portConstraint=eastwest;top=0;left=0;right=0;bottom=0;" parent="nZUH5uKoHN7z93Af-GjR-158" vertex="1">
          <mxGeometry y="90" width="129" height="30" as="geometry" />
        </mxCell>
        <mxCell id="nZUH5uKoHN7z93Af-GjR-166" value="" style="shape=partialRectangle;connectable=0;fillColor=none;top=0;left=0;bottom=0;right=0;editable=1;overflow=hidden;whiteSpace=wrap;html=1;" parent="nZUH5uKoHN7z93Af-GjR-165" vertex="1">
          <mxGeometry width="30" height="30" as="geometry">
            <mxRectangle width="30" height="30" as="alternateBounds" />
          </mxGeometry>
        </mxCell>
        <mxCell id="nZUH5uKoHN7z93Af-GjR-167" value="Weight" style="shape=partialRectangle;connectable=0;fillColor=none;top=0;left=0;bottom=0;right=0;align=left;spacingLeft=6;overflow=hidden;whiteSpace=wrap;html=1;" parent="nZUH5uKoHN7z93Af-GjR-165" vertex="1">
          <mxGeometry x="30" width="99" height="30" as="geometry">
            <mxRectangle width="99" height="30" as="alternateBounds" />
          </mxGeometry>
        </mxCell>
        <mxCell id="nZUH5uKoHN7z93Af-GjR-168" value="" style="shape=tableRow;horizontal=0;startSize=0;swimlaneHead=0;swimlaneBody=0;fillColor=none;collapsible=0;dropTarget=0;points=[[0,0.5],[1,0.5]];portConstraint=eastwest;top=0;left=0;right=0;bottom=0;" parent="nZUH5uKoHN7z93Af-GjR-158" vertex="1">
          <mxGeometry y="120" width="129" height="30" as="geometry" />
        </mxCell>
        <mxCell id="nZUH5uKoHN7z93Af-GjR-169" value="" style="shape=partialRectangle;connectable=0;fillColor=none;top=0;left=0;bottom=0;right=0;editable=1;overflow=hidden;whiteSpace=wrap;html=1;" parent="nZUH5uKoHN7z93Af-GjR-168" vertex="1">
          <mxGeometry width="30" height="30" as="geometry">
            <mxRectangle width="30" height="30" as="alternateBounds" />
          </mxGeometry>
        </mxCell>
        <mxCell id="nZUH5uKoHN7z93Af-GjR-170" value="Description" style="shape=partialRectangle;connectable=0;fillColor=none;top=0;left=0;bottom=0;right=0;align=left;spacingLeft=6;overflow=hidden;whiteSpace=wrap;html=1;" parent="nZUH5uKoHN7z93Af-GjR-168" vertex="1">
          <mxGeometry x="30" width="99" height="30" as="geometry">
            <mxRectangle width="99" height="30" as="alternateBounds" />
          </mxGeometry>
        </mxCell>
        <mxCell id="nZUH5uKoHN7z93Af-GjR-171" style="shape=tableRow;horizontal=0;startSize=0;swimlaneHead=0;swimlaneBody=0;fillColor=none;collapsible=0;dropTarget=0;points=[[0,0.5],[1,0.5]];portConstraint=eastwest;top=0;left=0;right=0;bottom=0;" parent="nZUH5uKoHN7z93Af-GjR-158" vertex="1">
          <mxGeometry y="150" width="129" height="30" as="geometry" />
        </mxCell>
        <mxCell id="nZUH5uKoHN7z93Af-GjR-172" value="FK" style="shape=partialRectangle;connectable=0;fillColor=none;top=0;left=0;bottom=0;right=0;editable=1;overflow=hidden;whiteSpace=wrap;html=1;" parent="nZUH5uKoHN7z93Af-GjR-171" vertex="1">
          <mxGeometry width="30" height="30" as="geometry">
            <mxRectangle width="30" height="30" as="alternateBounds" />
          </mxGeometry>
        </mxCell>
        <mxCell id="nZUH5uKoHN7z93Af-GjR-173" value="Passenger-ID" style="shape=partialRectangle;connectable=0;fillColor=none;top=0;left=0;bottom=0;right=0;align=left;spacingLeft=6;overflow=hidden;whiteSpace=wrap;html=1;" parent="nZUH5uKoHN7z93Af-GjR-171" vertex="1">
          <mxGeometry x="30" width="99" height="30" as="geometry">
            <mxRectangle width="99" height="30" as="alternateBounds" />
          </mxGeometry>
        </mxCell>
        <mxCell id="nZUH5uKoHN7z93Af-GjR-178" style="edgeStyle=orthogonalEdgeStyle;rounded=0;orthogonalLoop=1;jettySize=auto;html=1;entryX=0;entryY=0.5;entryDx=0;entryDy=0;endArrow=ERzeroToMany;endFill=0;startArrow=ERmandOne;startFill=0;exitX=0;exitY=0.5;exitDx=0;exitDy=0;" parent="1" source="nZUH5uKoHN7z93Af-GjR-33" target="nZUH5uKoHN7z93Af-GjR-175" edge="1">
          <mxGeometry relative="1" as="geometry">
            <mxPoint x="-839" y="525" as="sourcePoint" />
          </mxGeometry>
        </mxCell>
        <mxCell id="nZUH5uKoHN7z93Af-GjR-180" style="edgeStyle=entityRelationEdgeStyle;rounded=0;orthogonalLoop=1;jettySize=auto;html=1;exitX=1;exitY=0.5;exitDx=0;exitDy=0;entryX=0;entryY=0.5;entryDx=0;entryDy=0;endArrow=ERzeroToMany;endFill=0;startArrow=ERmandOne;startFill=0;" parent="1" source="nZUH5uKoHN7z93Af-GjR-140" target="nZUH5uKoHN7z93Af-GjR-171" edge="1">
          <mxGeometry relative="1" as="geometry" />
        </mxCell>
        <mxCell id="nZUH5uKoHN7z93Af-GjR-182" value="" style="edgeStyle=entityRelationEdgeStyle;fontSize=12;html=1;endArrow=ERzeroToMany;endFill=1;startArrow=ERzeroToMany;rounded=0;entryX=0;entryY=0.5;entryDx=0;entryDy=0;exitX=1;exitY=0.5;exitDx=0;exitDy=0;" parent="1" source="nZUH5uKoHN7z93Af-GjR-130" target="nZUH5uKoHN7z93Af-GjR-140" edge="1">
          <mxGeometry width="100" height="100" relative="1" as="geometry">
            <mxPoint x="-532" y="786" as="sourcePoint" />
            <mxPoint x="-491" y="672" as="targetPoint" />
          </mxGeometry>
        </mxCell>
        <mxCell id="nZUH5uKoHN7z93Af-GjR-183" value="" style="edgeStyle=entityRelationEdgeStyle;fontSize=12;html=1;endArrow=ERmandOne;startArrow=ERmandOne;rounded=0;entryX=0;entryY=0.5;entryDx=0;entryDy=0;exitX=1;exitY=0.5;exitDx=0;exitDy=0;endFill=0;" parent="1" source="nZUH5uKoHN7z93Af-GjR-124" target="nZUH5uKoHN7z93Af-GjR-84" edge="1">
          <mxGeometry width="100" height="100" relative="1" as="geometry">
            <mxPoint x="-577" y="638" as="sourcePoint" />
            <mxPoint x="-477" y="538" as="targetPoint" />
          </mxGeometry>
        </mxCell>
        <mxCell id="nZUH5uKoHN7z93Af-GjR-184" style="edgeStyle=entityRelationEdgeStyle;rounded=0;orthogonalLoop=1;jettySize=auto;html=1;exitX=1;exitY=0.5;exitDx=0;exitDy=0;entryX=0;entryY=0.5;entryDx=0;entryDy=0;endArrow=ERzeroToMany;endFill=0;startArrow=ERmandOne;startFill=0;" parent="1" source="nZUH5uKoHN7z93Af-GjR-17" target="nZUH5uKoHN7z93Af-GjR-99" edge="1">
          <mxGeometry relative="1" as="geometry" />
        </mxCell>
        <mxCell id="nZUH5uKoHN7z93Af-GjR-188" style="edgeStyle=entityRelationEdgeStyle;rounded=0;orthogonalLoop=1;jettySize=auto;html=1;exitX=1;exitY=0.5;exitDx=0;exitDy=0;entryX=0;entryY=0.5;entryDx=0;entryDy=0;startArrow=ERzeroToMany;startFill=0;endArrow=ERmandOne;endFill=0;" parent="1" source="nZUH5uKoHN7z93Af-GjR-185" target="nZUH5uKoHN7z93Af-GjR-4" edge="1">
          <mxGeometry relative="1" as="geometry" />
        </mxCell>
        <mxCell id="nZUH5uKoHN7z93Af-GjR-189" style="edgeStyle=entityRelationEdgeStyle;rounded=0;orthogonalLoop=1;jettySize=auto;html=1;exitX=1;exitY=0.5;exitDx=0;exitDy=0;entryX=0;entryY=0.5;entryDx=0;entryDy=0;startArrow=ERmandOne;startFill=0;endArrow=ERzeroToMany;endFill=0;" parent="1" source="nZUH5uKoHN7z93Af-GjR-4" target="nZUH5uKoHN7z93Af-GjR-29" edge="1">
          <mxGeometry relative="1" as="geometry" />
        </mxCell>
        <mxCell id="nZUH5uKoHN7z93Af-GjR-191" style="edgeStyle=entityRelationEdgeStyle;rounded=0;orthogonalLoop=1;jettySize=auto;html=1;entryX=0;entryY=0.5;entryDx=0;entryDy=0;exitX=1;exitY=0.5;exitDx=0;exitDy=0;endArrow=ERoneToMany;endFill=0;startArrow=ERmandOne;startFill=0;" parent="1" source="nZUH5uKoHN7z93Af-GjR-33" target="nZUH5uKoHN7z93Af-GjR-67" edge="1">
          <mxGeometry relative="1" as="geometry">
            <mxPoint x="-742" y="237" as="sourcePoint" />
          </mxGeometry>
        </mxCell>
        <mxCell id="nZUH5uKoHN7z93Af-GjR-193" style="edgeStyle=entityRelationEdgeStyle;rounded=0;orthogonalLoop=1;jettySize=auto;html=1;exitX=0;exitY=0.5;exitDx=0;exitDy=0;entryX=1;entryY=0.5;entryDx=0;entryDy=0;endArrow=ERoneToMany;endFill=0;startArrow=ERmandOne;startFill=0;" parent="1" source="nZUH5uKoHN7z93Af-GjR-17" target="nZUH5uKoHN7z93Af-GjR-45" edge="1">
          <mxGeometry relative="1" as="geometry" />
        </mxCell>
        <mxCell id="nZUH5uKoHN7z93Af-GjR-198" style="edgeStyle=entityRelationEdgeStyle;rounded=0;orthogonalLoop=1;jettySize=auto;html=1;exitX=1;exitY=0.5;exitDx=0;exitDy=0;entryX=0;entryY=0.5;entryDx=0;entryDy=0;startArrow=ERmandOne;startFill=0;endArrow=ERmandOne;endFill=0;" parent="1" source="nZUH5uKoHN7z93Af-GjR-52" target="nZUH5uKoHN7z93Af-GjR-195" edge="1">
          <mxGeometry relative="1" as="geometry" />
        </mxCell>
        <mxCell id="nZUH5uKoHN7z93Af-GjR-199" value="&lt;span style=&quot;border-bottom: 1px dotted&quot;&gt;Agency-ID&lt;/span&gt;" style="ellipse;whiteSpace=wrap;html=1;align=center;" parent="1" vertex="1">
          <mxGeometry x="917" y="405" width="102" height="42" as="geometry" />
        </mxCell>
        <mxCell id="nZUH5uKoHN7z93Af-GjR-200" value="&lt;span style=&quot;border-bottom: 1px dotted&quot;&gt;Dirver-ID&lt;/span&gt;" style="ellipse;whiteSpace=wrap;html=1;align=center;" parent="1" vertex="1">
          <mxGeometry x="949" y="363" width="100" height="40" as="geometry" />
        </mxCell>
        <mxCell id="nZUH5uKoHN7z93Af-GjR-203" style="edgeStyle=orthogonalEdgeStyle;rounded=0;orthogonalLoop=1;jettySize=auto;html=1;exitX=0;exitY=0.5;exitDx=0;exitDy=0;entryX=0.628;entryY=1.01;entryDx=0;entryDy=0;entryPerimeter=0;endArrow=none;startFill=0;" parent="1" source="nZUH5uKoHN7z93Af-GjR-199" target="d92FIJJa25exs1OfrTLI-37" edge="1">
          <mxGeometry relative="1" as="geometry" />
        </mxCell>
        <mxCell id="nZUH5uKoHN7z93Af-GjR-205" style="edgeStyle=orthogonalEdgeStyle;rounded=0;orthogonalLoop=1;jettySize=auto;html=1;exitX=1;exitY=0.5;exitDx=0;exitDy=0;entryX=0.25;entryY=0;entryDx=0;entryDy=0;endArrow=none;startFill=0;" parent="1" source="nZUH5uKoHN7z93Af-GjR-204" target="zyWTynDUfDF3k8TMz7bk-308" edge="1">
          <mxGeometry relative="1" as="geometry" />
        </mxCell>
        <mxCell id="nZUH5uKoHN7z93Af-GjR-204" value="&lt;span style=&quot;border-bottom: 1px dotted&quot;&gt;Emp-ID&lt;/span&gt;" style="ellipse;whiteSpace=wrap;html=1;align=center;" parent="1" vertex="1">
          <mxGeometry x="422" y="270" width="100" height="40" as="geometry" />
        </mxCell>
        <mxCell id="nZUH5uKoHN7z93Af-GjR-208" style="edgeStyle=orthogonalEdgeStyle;rounded=0;orthogonalLoop=1;jettySize=auto;html=1;exitX=1;exitY=0.5;exitDx=0;exitDy=0;entryX=0.5;entryY=1;entryDx=0;entryDy=0;endArrow=none;startFill=0;" parent="1" source="nZUH5uKoHN7z93Af-GjR-207" target="zyWTynDUfDF3k8TMz7bk-309" edge="1">
          <mxGeometry relative="1" as="geometry" />
        </mxCell>
        <mxCell id="nZUH5uKoHN7z93Af-GjR-207" value="&lt;span style=&quot;border-bottom: 1px dotted&quot;&gt;Agency-ID&lt;/span&gt;" style="ellipse;whiteSpace=wrap;html=1;align=center;" parent="1" vertex="1">
          <mxGeometry x="172" y="445" width="100" height="40" as="geometry" />
        </mxCell>
        <mxCell id="nZUH5uKoHN7z93Af-GjR-213" style="edgeStyle=orthogonalEdgeStyle;rounded=0;orthogonalLoop=1;jettySize=auto;html=1;exitX=0;exitY=0.5;exitDx=0;exitDy=0;entryX=1;entryY=0.25;entryDx=0;entryDy=0;endArrow=none;startFill=0;" parent="1" source="nZUH5uKoHN7z93Af-GjR-212" target="zyWTynDUfDF3k8TMz7bk-312" edge="1">
          <mxGeometry relative="1" as="geometry" />
        </mxCell>
        <mxCell id="nZUH5uKoHN7z93Af-GjR-212" value="ID" style="ellipse;whiteSpace=wrap;html=1;align=center;fontStyle=4;" parent="1" vertex="1">
          <mxGeometry x="949" y="473" width="100" height="40" as="geometry" />
        </mxCell>
        <mxCell id="nZUH5uKoHN7z93Af-GjR-215" style="edgeStyle=orthogonalEdgeStyle;rounded=0;orthogonalLoop=1;jettySize=auto;html=1;exitX=0;exitY=0.5;exitDx=0;exitDy=0;entryX=0.75;entryY=1;entryDx=0;entryDy=0;endArrow=none;startFill=0;" parent="1" source="nZUH5uKoHN7z93Af-GjR-214" target="zyWTynDUfDF3k8TMz7bk-311" edge="1">
          <mxGeometry relative="1" as="geometry" />
        </mxCell>
        <mxCell id="nZUH5uKoHN7z93Af-GjR-214" value="ID" style="ellipse;whiteSpace=wrap;html=1;align=center;fontStyle=4;" parent="1" vertex="1">
          <mxGeometry x="805" y="687" width="100" height="40" as="geometry" />
        </mxCell>
        <mxCell id="nZUH5uKoHN7z93Af-GjR-218" style="edgeStyle=orthogonalEdgeStyle;rounded=0;orthogonalLoop=1;jettySize=auto;html=1;exitX=1;exitY=0.5;exitDx=0;exitDy=0;entryX=0;entryY=1;entryDx=0;entryDy=0;endArrow=none;startFill=0;" parent="1" source="nZUH5uKoHN7z93Af-GjR-217" target="zyWTynDUfDF3k8TMz7bk-310" edge="1">
          <mxGeometry relative="1" as="geometry" />
        </mxCell>
        <mxCell id="nZUH5uKoHN7z93Af-GjR-222" style="edgeStyle=orthogonalEdgeStyle;rounded=0;orthogonalLoop=1;jettySize=auto;html=1;exitX=0;exitY=0;exitDx=0;exitDy=0;entryX=1;entryY=0.5;entryDx=0;entryDy=0;endArrow=none;startFill=0;" parent="1" source="nZUH5uKoHN7z93Af-GjR-217" target="nZUH5uKoHN7z93Af-GjR-220" edge="1">
          <mxGeometry relative="1" as="geometry" />
        </mxCell>
        <mxCell id="nZUH5uKoHN7z93Af-GjR-223" style="edgeStyle=orthogonalEdgeStyle;rounded=0;orthogonalLoop=1;jettySize=auto;html=1;exitX=0;exitY=1;exitDx=0;exitDy=0;entryX=1;entryY=0.5;entryDx=0;entryDy=0;endArrow=none;startFill=0;" parent="1" source="nZUH5uKoHN7z93Af-GjR-217" target="nZUH5uKoHN7z93Af-GjR-219" edge="1">
          <mxGeometry relative="1" as="geometry" />
        </mxCell>
        <mxCell id="nZUH5uKoHN7z93Af-GjR-217" value="Status" style="ellipse;shape=doubleEllipse;margin=3;whiteSpace=wrap;html=1;align=center;" parent="1" vertex="1">
          <mxGeometry x="159" y="692" width="100" height="40" as="geometry" />
        </mxCell>
        <mxCell id="nZUH5uKoHN7z93Af-GjR-219" value="Canceled" style="ellipse;whiteSpace=wrap;html=1;align=center;" parent="1" vertex="1">
          <mxGeometry x="17" y="720" width="100" height="40" as="geometry" />
        </mxCell>
        <mxCell id="nZUH5uKoHN7z93Af-GjR-220" value="Active" style="ellipse;whiteSpace=wrap;html=1;align=center;" parent="1" vertex="1">
          <mxGeometry x="17" y="665" width="100" height="40" as="geometry" />
        </mxCell>
        <mxCell id="nZUH5uKoHN7z93Af-GjR-224" value="&lt;span style=&quot;border-bottom: 1px dotted&quot;&gt;Passenger-ID&lt;/span&gt;" style="ellipse;whiteSpace=wrap;html=1;align=center;" parent="1" vertex="1">
          <mxGeometry x="363" y="772" width="100" height="40" as="geometry" />
        </mxCell>
        <mxCell id="nZUH5uKoHN7z93Af-GjR-225" style="edgeStyle=orthogonalEdgeStyle;rounded=0;orthogonalLoop=1;jettySize=auto;html=1;exitX=0;exitY=0.5;exitDx=0;exitDy=0;entryX=0.413;entryY=0.923;entryDx=0;entryDy=0;entryPerimeter=0;endArrow=none;startFill=0;" parent="1" source="nZUH5uKoHN7z93Af-GjR-224" target="zyWTynDUfDF3k8TMz7bk-310" edge="1">
          <mxGeometry relative="1" as="geometry" />
        </mxCell>
        <mxCell id="nZUH5uKoHN7z93Af-GjR-226" value="&lt;span style=&quot;border-bottom: 1px dotted&quot;&gt;Bsu-No&lt;/span&gt;" style="ellipse;whiteSpace=wrap;html=1;align=center;" parent="1" vertex="1">
          <mxGeometry x="382" y="723" width="108" height="40" as="geometry" />
        </mxCell>
        <mxCell id="nZUH5uKoHN7z93Af-GjR-227" value="&lt;span style=&quot;border-bottom: 1px dotted&quot;&gt;Emp-ID&lt;/span&gt;" style="ellipse;whiteSpace=wrap;html=1;align=center;" parent="1" vertex="1">
          <mxGeometry x="416" y="680" width="100" height="40" as="geometry" />
        </mxCell>
        <mxCell id="nZUH5uKoHN7z93Af-GjR-228" value="price" style="ellipse;whiteSpace=wrap;html=1;align=center;labelBackgroundColor=none;rounded=0;backgroundOutline=0;" parent="1" vertex="1">
          <mxGeometry x="439" y="560" width="100" height="40" as="geometry" />
        </mxCell>
        <mxCell id="nZUH5uKoHN7z93Af-GjR-230" value="&lt;span style=&quot;border-bottom: 1px dotted&quot;&gt;Com-ID&lt;/span&gt;" style="ellipse;whiteSpace=wrap;html=1;align=center;" parent="1" vertex="1">
          <mxGeometry x="165" y="9" width="100" height="40" as="geometry" />
        </mxCell>
        <mxCell id="nZUH5uKoHN7z93Af-GjR-233" style="edgeStyle=orthogonalEdgeStyle;rounded=0;orthogonalLoop=1;jettySize=auto;html=1;exitX=0;exitY=0.5;exitDx=0;exitDy=0;entryX=0.25;entryY=1;entryDx=0;entryDy=0;endArrow=none;startFill=0;" parent="1" source="nZUH5uKoHN7z93Af-GjR-232" target="-8xyfi9ZjJV_24Lj2asy-24" edge="1">
          <mxGeometry relative="1" as="geometry" />
        </mxCell>
        <mxCell id="nZUH5uKoHN7z93Af-GjR-232" value="Com-ID" style="ellipse;whiteSpace=wrap;html=1;align=center;fontStyle=4;" parent="1" vertex="1">
          <mxGeometry x="386" y="145" width="100" height="40" as="geometry" />
        </mxCell>
        <mxCell id="K4GaCU7EKNPxEDtjbrX5-1" value="user name" style="ellipse;whiteSpace=wrap;html=1;align=center;fontStyle=4;" parent="1" vertex="1">
          <mxGeometry x="59" y="27" width="100" height="40" as="geometry" />
        </mxCell>
        <mxCell id="2kyt7btvpa-o1IS7NTpx-2" style="edgeStyle=orthogonalEdgeStyle;rounded=0;orthogonalLoop=1;jettySize=auto;html=1;exitX=1;exitY=1;exitDx=0;exitDy=0;endArrow=none;startFill=0;entryX=0.5;entryY=0;entryDx=0;entryDy=0;" parent="1" source="2kyt7btvpa-o1IS7NTpx-1" target="zyWTynDUfDF3k8TMz7bk-305" edge="1">
          <mxGeometry relative="1" as="geometry">
            <mxPoint x="626" y="85" as="targetPoint" />
            <Array as="points">
              <mxPoint x="617" y="77" />
              <mxPoint x="608" y="77" />
              <mxPoint x="608" y="99" />
            </Array>
          </mxGeometry>
        </mxCell>
        <mxCell id="2kyt7btvpa-o1IS7NTpx-1" value="&lt;span style=&quot;border-bottom: 1px dotted&quot;&gt;&lt;span style=&quot;text-align: left;&quot;&gt;Com_ID&lt;/span&gt;&lt;/span&gt;" style="ellipse;whiteSpace=wrap;html=1;align=center;" parent="1" vertex="1">
          <mxGeometry x="532" y="9" width="100" height="40" as="geometry" />
        </mxCell>
        <mxCell id="8_H0_nsULuqBXTJyaxnp-1" value="Ticket-&lt;span style=&quot;font-weight: 400; text-align: left; text-wrap-mode: wrap;&quot;&gt;Status&lt;/span&gt;" style="shape=table;startSize=30;container=1;collapsible=1;childLayout=tableLayout;fixedRows=1;rowLines=0;fontStyle=1;align=center;resizeLast=1;html=1;" vertex="1" parent="1">
          <mxGeometry x="-1059" y="656" width="129" height="120" as="geometry" />
        </mxCell>
        <mxCell id="8_H0_nsULuqBXTJyaxnp-2" value="" style="shape=tableRow;horizontal=0;startSize=0;swimlaneHead=0;swimlaneBody=0;fillColor=none;collapsible=0;dropTarget=0;points=[[0,0.5],[1,0.5]];portConstraint=eastwest;top=0;left=0;right=0;bottom=1;" vertex="1" parent="8_H0_nsULuqBXTJyaxnp-1">
          <mxGeometry y="30" width="129" height="30" as="geometry" />
        </mxCell>
        <mxCell id="8_H0_nsULuqBXTJyaxnp-3" value="PK" style="shape=partialRectangle;connectable=0;fillColor=none;top=0;left=0;bottom=0;right=0;fontStyle=1;overflow=hidden;whiteSpace=wrap;html=1;" vertex="1" parent="8_H0_nsULuqBXTJyaxnp-2">
          <mxGeometry width="30" height="30" as="geometry">
            <mxRectangle width="30" height="30" as="alternateBounds" />
          </mxGeometry>
        </mxCell>
        <mxCell id="8_H0_nsULuqBXTJyaxnp-4" value="ID" style="shape=partialRectangle;connectable=0;fillColor=none;top=0;left=0;bottom=0;right=0;align=left;spacingLeft=6;fontStyle=5;overflow=hidden;whiteSpace=wrap;html=1;" vertex="1" parent="8_H0_nsULuqBXTJyaxnp-2">
          <mxGeometry x="30" width="99" height="30" as="geometry">
            <mxRectangle width="99" height="30" as="alternateBounds" />
          </mxGeometry>
        </mxCell>
        <mxCell id="8_H0_nsULuqBXTJyaxnp-5" value="" style="shape=tableRow;horizontal=0;startSize=0;swimlaneHead=0;swimlaneBody=0;fillColor=none;collapsible=0;dropTarget=0;points=[[0,0.5],[1,0.5]];portConstraint=eastwest;top=0;left=0;right=0;bottom=0;" vertex="1" parent="8_H0_nsULuqBXTJyaxnp-1">
          <mxGeometry y="60" width="129" height="30" as="geometry" />
        </mxCell>
        <mxCell id="8_H0_nsULuqBXTJyaxnp-6" value="" style="shape=partialRectangle;connectable=0;fillColor=none;top=0;left=0;bottom=0;right=0;editable=1;overflow=hidden;whiteSpace=wrap;html=1;" vertex="1" parent="8_H0_nsULuqBXTJyaxnp-5">
          <mxGeometry width="30" height="30" as="geometry">
            <mxRectangle width="30" height="30" as="alternateBounds" />
          </mxGeometry>
        </mxCell>
        <mxCell id="8_H0_nsULuqBXTJyaxnp-7" value="Active" style="shape=partialRectangle;connectable=0;fillColor=none;top=0;left=0;bottom=0;right=0;align=left;spacingLeft=6;overflow=hidden;whiteSpace=wrap;html=1;" vertex="1" parent="8_H0_nsULuqBXTJyaxnp-5">
          <mxGeometry x="30" width="99" height="30" as="geometry">
            <mxRectangle width="99" height="30" as="alternateBounds" />
          </mxGeometry>
        </mxCell>
        <mxCell id="8_H0_nsULuqBXTJyaxnp-8" value="" style="shape=tableRow;horizontal=0;startSize=0;swimlaneHead=0;swimlaneBody=0;fillColor=none;collapsible=0;dropTarget=0;points=[[0,0.5],[1,0.5]];portConstraint=eastwest;top=0;left=0;right=0;bottom=0;" vertex="1" parent="8_H0_nsULuqBXTJyaxnp-1">
          <mxGeometry y="90" width="129" height="30" as="geometry" />
        </mxCell>
        <mxCell id="8_H0_nsULuqBXTJyaxnp-9" value="" style="shape=partialRectangle;connectable=0;fillColor=none;top=0;left=0;bottom=0;right=0;editable=1;overflow=hidden;whiteSpace=wrap;html=1;" vertex="1" parent="8_H0_nsULuqBXTJyaxnp-8">
          <mxGeometry width="30" height="30" as="geometry">
            <mxRectangle width="30" height="30" as="alternateBounds" />
          </mxGeometry>
        </mxCell>
        <mxCell id="8_H0_nsULuqBXTJyaxnp-10" value="Canceled" style="shape=partialRectangle;connectable=0;fillColor=none;top=0;left=0;bottom=0;right=0;align=left;spacingLeft=6;overflow=hidden;whiteSpace=wrap;html=1;" vertex="1" parent="8_H0_nsULuqBXTJyaxnp-8">
          <mxGeometry x="30" width="99" height="30" as="geometry">
            <mxRectangle width="99" height="30" as="alternateBounds" />
          </mxGeometry>
        </mxCell>
        <mxCell id="8_H0_nsULuqBXTJyaxnp-30" value="&lt;div style=&quot;text-align: left;&quot;&gt;&lt;span style=&quot;background-color: transparent; color: light-dark(rgb(0, 0, 0), rgb(255, 255, 255));&quot;&gt;Ticket-&lt;span style=&quot;font-weight: 400; text-wrap-mode: wrap;&quot;&gt;Type&lt;/span&gt;&lt;/span&gt;&lt;/div&gt;" style="shape=table;startSize=30;container=1;collapsible=1;childLayout=tableLayout;fixedRows=1;rowLines=0;fontStyle=1;align=center;resizeLast=1;html=1;" vertex="1" parent="1">
          <mxGeometry x="-1059" y="511" width="129" height="120" as="geometry" />
        </mxCell>
        <mxCell id="8_H0_nsULuqBXTJyaxnp-31" value="" style="shape=tableRow;horizontal=0;startSize=0;swimlaneHead=0;swimlaneBody=0;fillColor=none;collapsible=0;dropTarget=0;points=[[0,0.5],[1,0.5]];portConstraint=eastwest;top=0;left=0;right=0;bottom=1;" vertex="1" parent="8_H0_nsULuqBXTJyaxnp-30">
          <mxGeometry y="30" width="129" height="30" as="geometry" />
        </mxCell>
        <mxCell id="8_H0_nsULuqBXTJyaxnp-32" value="PK" style="shape=partialRectangle;connectable=0;fillColor=none;top=0;left=0;bottom=0;right=0;fontStyle=1;overflow=hidden;whiteSpace=wrap;html=1;" vertex="1" parent="8_H0_nsULuqBXTJyaxnp-31">
          <mxGeometry width="30" height="30" as="geometry">
            <mxRectangle width="30" height="30" as="alternateBounds" />
          </mxGeometry>
        </mxCell>
        <mxCell id="8_H0_nsULuqBXTJyaxnp-33" value="ID" style="shape=partialRectangle;connectable=0;fillColor=none;top=0;left=0;bottom=0;right=0;align=left;spacingLeft=6;fontStyle=5;overflow=hidden;whiteSpace=wrap;html=1;" vertex="1" parent="8_H0_nsULuqBXTJyaxnp-31">
          <mxGeometry x="30" width="99" height="30" as="geometry">
            <mxRectangle width="99" height="30" as="alternateBounds" />
          </mxGeometry>
        </mxCell>
        <mxCell id="8_H0_nsULuqBXTJyaxnp-34" value="" style="shape=tableRow;horizontal=0;startSize=0;swimlaneHead=0;swimlaneBody=0;fillColor=none;collapsible=0;dropTarget=0;points=[[0,0.5],[1,0.5]];portConstraint=eastwest;top=0;left=0;right=0;bottom=0;" vertex="1" parent="8_H0_nsULuqBXTJyaxnp-30">
          <mxGeometry y="60" width="129" height="30" as="geometry" />
        </mxCell>
        <mxCell id="8_H0_nsULuqBXTJyaxnp-35" value="" style="shape=partialRectangle;connectable=0;fillColor=none;top=0;left=0;bottom=0;right=0;editable=1;overflow=hidden;whiteSpace=wrap;html=1;" vertex="1" parent="8_H0_nsULuqBXTJyaxnp-34">
          <mxGeometry width="30" height="30" as="geometry">
            <mxRectangle width="30" height="30" as="alternateBounds" />
          </mxGeometry>
        </mxCell>
        <mxCell id="8_H0_nsULuqBXTJyaxnp-36" value="VIP" style="shape=partialRectangle;connectable=0;fillColor=none;top=0;left=0;bottom=0;right=0;align=left;spacingLeft=6;overflow=hidden;whiteSpace=wrap;html=1;" vertex="1" parent="8_H0_nsULuqBXTJyaxnp-34">
          <mxGeometry x="30" width="99" height="30" as="geometry">
            <mxRectangle width="99" height="30" as="alternateBounds" />
          </mxGeometry>
        </mxCell>
        <mxCell id="8_H0_nsULuqBXTJyaxnp-37" value="" style="shape=tableRow;horizontal=0;startSize=0;swimlaneHead=0;swimlaneBody=0;fillColor=none;collapsible=0;dropTarget=0;points=[[0,0.5],[1,0.5]];portConstraint=eastwest;top=0;left=0;right=0;bottom=0;" vertex="1" parent="8_H0_nsULuqBXTJyaxnp-30">
          <mxGeometry y="90" width="129" height="30" as="geometry" />
        </mxCell>
        <mxCell id="8_H0_nsULuqBXTJyaxnp-38" value="" style="shape=partialRectangle;connectable=0;fillColor=none;top=0;left=0;bottom=0;right=0;editable=1;overflow=hidden;whiteSpace=wrap;html=1;" vertex="1" parent="8_H0_nsULuqBXTJyaxnp-37">
          <mxGeometry width="30" height="30" as="geometry">
            <mxRectangle width="30" height="30" as="alternateBounds" />
          </mxGeometry>
        </mxCell>
        <mxCell id="8_H0_nsULuqBXTJyaxnp-39" value="Normal" style="shape=partialRectangle;connectable=0;fillColor=none;top=0;left=0;bottom=0;right=0;align=left;spacingLeft=6;overflow=hidden;whiteSpace=wrap;html=1;" vertex="1" parent="8_H0_nsULuqBXTJyaxnp-37">
          <mxGeometry x="30" width="99" height="30" as="geometry">
            <mxRectangle width="99" height="30" as="alternateBounds" />
          </mxGeometry>
        </mxCell>
        <mxCell id="8_H0_nsULuqBXTJyaxnp-41" style="edgeStyle=entityRelationEdgeStyle;rounded=0;orthogonalLoop=1;jettySize=auto;html=1;exitX=1;exitY=0.5;exitDx=0;exitDy=0;entryX=0;entryY=0.5;entryDx=0;entryDy=0;startArrow=ERmandOne;startFill=0;endArrow=ERmandOne;endFill=0;" edge="1" parent="1" source="8_H0_nsULuqBXTJyaxnp-2" target="nZUH5uKoHN7z93Af-GjR-133">
          <mxGeometry relative="1" as="geometry" />
        </mxCell>
        <mxCell id="8_H0_nsULuqBXTJyaxnp-42" style="edgeStyle=entityRelationEdgeStyle;rounded=0;orthogonalLoop=1;jettySize=auto;html=1;exitX=1;exitY=0.5;exitDx=0;exitDy=0;entryX=0;entryY=0.5;entryDx=0;entryDy=0;endArrow=ERmandOne;endFill=0;startArrow=ERmandOne;startFill=0;" edge="1" parent="1" source="8_H0_nsULuqBXTJyaxnp-31" target="nZUH5uKoHN7z93Af-GjR-112">
          <mxGeometry relative="1" as="geometry" />
        </mxCell>
        <mxCell id="8_H0_nsULuqBXTJyaxnp-43" value="&lt;div style=&quot;text-align: left;&quot;&gt;User-&lt;span style=&quot;font-weight: 400; text-wrap-mode: wrap; background-color: transparent; color: light-dark(rgb(0, 0, 0), rgb(255, 255, 255));&quot;&gt;Type&lt;/span&gt;&lt;/div&gt;" style="shape=table;startSize=30;container=1;collapsible=1;childLayout=tableLayout;fixedRows=1;rowLines=0;fontStyle=1;align=center;resizeLast=1;html=1;" vertex="1" parent="1">
          <mxGeometry x="-1059" y="212" width="129" height="120" as="geometry" />
        </mxCell>
        <mxCell id="8_H0_nsULuqBXTJyaxnp-44" value="" style="shape=tableRow;horizontal=0;startSize=0;swimlaneHead=0;swimlaneBody=0;fillColor=none;collapsible=0;dropTarget=0;points=[[0,0.5],[1,0.5]];portConstraint=eastwest;top=0;left=0;right=0;bottom=1;" vertex="1" parent="8_H0_nsULuqBXTJyaxnp-43">
          <mxGeometry y="30" width="129" height="30" as="geometry" />
        </mxCell>
        <mxCell id="8_H0_nsULuqBXTJyaxnp-45" value="PK" style="shape=partialRectangle;connectable=0;fillColor=none;top=0;left=0;bottom=0;right=0;fontStyle=1;overflow=hidden;whiteSpace=wrap;html=1;" vertex="1" parent="8_H0_nsULuqBXTJyaxnp-44">
          <mxGeometry width="30" height="30" as="geometry">
            <mxRectangle width="30" height="30" as="alternateBounds" />
          </mxGeometry>
        </mxCell>
        <mxCell id="8_H0_nsULuqBXTJyaxnp-46" value="ID" style="shape=partialRectangle;connectable=0;fillColor=none;top=0;left=0;bottom=0;right=0;align=left;spacingLeft=6;fontStyle=5;overflow=hidden;whiteSpace=wrap;html=1;" vertex="1" parent="8_H0_nsULuqBXTJyaxnp-44">
          <mxGeometry x="30" width="99" height="30" as="geometry">
            <mxRectangle width="99" height="30" as="alternateBounds" />
          </mxGeometry>
        </mxCell>
        <mxCell id="8_H0_nsULuqBXTJyaxnp-47" value="" style="shape=tableRow;horizontal=0;startSize=0;swimlaneHead=0;swimlaneBody=0;fillColor=none;collapsible=0;dropTarget=0;points=[[0,0.5],[1,0.5]];portConstraint=eastwest;top=0;left=0;right=0;bottom=0;" vertex="1" parent="8_H0_nsULuqBXTJyaxnp-43">
          <mxGeometry y="60" width="129" height="30" as="geometry" />
        </mxCell>
        <mxCell id="8_H0_nsULuqBXTJyaxnp-48" value="" style="shape=partialRectangle;connectable=0;fillColor=none;top=0;left=0;bottom=0;right=0;editable=1;overflow=hidden;whiteSpace=wrap;html=1;" vertex="1" parent="8_H0_nsULuqBXTJyaxnp-47">
          <mxGeometry width="30" height="30" as="geometry">
            <mxRectangle width="30" height="30" as="alternateBounds" />
          </mxGeometry>
        </mxCell>
        <mxCell id="8_H0_nsULuqBXTJyaxnp-49" value="Admin" style="shape=partialRectangle;connectable=0;fillColor=none;top=0;left=0;bottom=0;right=0;align=left;spacingLeft=6;overflow=hidden;whiteSpace=wrap;html=1;" vertex="1" parent="8_H0_nsULuqBXTJyaxnp-47">
          <mxGeometry x="30" width="99" height="30" as="geometry">
            <mxRectangle width="99" height="30" as="alternateBounds" />
          </mxGeometry>
        </mxCell>
        <mxCell id="8_H0_nsULuqBXTJyaxnp-50" value="" style="shape=tableRow;horizontal=0;startSize=0;swimlaneHead=0;swimlaneBody=0;fillColor=none;collapsible=0;dropTarget=0;points=[[0,0.5],[1,0.5]];portConstraint=eastwest;top=0;left=0;right=0;bottom=0;" vertex="1" parent="8_H0_nsULuqBXTJyaxnp-43">
          <mxGeometry y="90" width="129" height="30" as="geometry" />
        </mxCell>
        <mxCell id="8_H0_nsULuqBXTJyaxnp-51" value="" style="shape=partialRectangle;connectable=0;fillColor=none;top=0;left=0;bottom=0;right=0;editable=1;overflow=hidden;whiteSpace=wrap;html=1;" vertex="1" parent="8_H0_nsULuqBXTJyaxnp-50">
          <mxGeometry width="30" height="30" as="geometry">
            <mxRectangle width="30" height="30" as="alternateBounds" />
          </mxGeometry>
        </mxCell>
        <mxCell id="8_H0_nsULuqBXTJyaxnp-52" value="User" style="shape=partialRectangle;connectable=0;fillColor=none;top=0;left=0;bottom=0;right=0;align=left;spacingLeft=6;overflow=hidden;whiteSpace=wrap;html=1;" vertex="1" parent="8_H0_nsULuqBXTJyaxnp-50">
          <mxGeometry x="30" width="99" height="30" as="geometry">
            <mxRectangle width="99" height="30" as="alternateBounds" />
          </mxGeometry>
        </mxCell>
        <mxCell id="8_H0_nsULuqBXTJyaxnp-53" style="edgeStyle=orthogonalEdgeStyle;rounded=0;orthogonalLoop=1;jettySize=auto;html=1;exitX=0;exitY=0.5;exitDx=0;exitDy=0;entryX=0;entryY=0.5;entryDx=0;entryDy=0;" edge="1" parent="1" source="8_H0_nsULuqBXTJyaxnp-44" target="K4GaCU7EKNPxEDtjbrX5-2">
          <mxGeometry relative="1" as="geometry" />
        </mxCell>
      </root>
    </mxGraphModel>
  </diagram>
</mxfile>
